<?xml version="1.0" encoding="UTF-8" standalone="no"?>
<!DOCTYPE svg PUBLIC "-//W3C//DTD SVG 1.1//EN" "http://www.w3.org/Graphics/SVG/1.1/DTD/svg11.dtd">
<svg width="100%" height="100%" viewBox="0 0 172 38" version="1.1" xmlns="http://www.w3.org/2000/svg" xmlns:xlink="http://www.w3.org/1999/xlink" xml:space="preserve" xmlns:serif="http://www.serif.com/" style="fill-rule:evenodd;clip-rule:evenodd;stroke-linejoin:round;stroke-miterlimit:2;">
    <g transform="matrix(1,0,0,1,-279.662045,-368.173004)">
        <path d="M317.026,383.448L316.045,383.448L316.509,381.77L322.522,381.77C323.23,381.77 323.547,382.089 323.547,382.798L323.547,384.428L321.751,384.428L321.751,383.78C321.751,383.567 321.63,383.448 321.419,383.448L319.003,383.448L319.003,386.255L322.476,386.255L322.476,387.93L319.003,387.93L319.003,390.481C319.003,390.692 319.124,390.813 319.336,390.813L321.812,390.813C322.023,390.813 322.145,390.692 322.145,390.481L322.145,389.833L323.94,389.833L323.94,391.464C323.94,392.186 323.624,392.489 322.915,392.489L318.052,392.489C317.328,392.489 317.026,392.186 317.026,391.464L317.026,383.448Z" style="fill:rgb(35,31,32);fill-rule:nonzero;"/>
        <path d="M325.91,390.044C325.91,390.044 326.893,391.177 328.205,391.177C328.795,391.177 329.247,390.934 329.247,390.421C329.247,389.335 325.186,389.348 325.186,386.858C325.186,385.319 326.574,384.608 328.175,384.608C329.217,384.608 330.877,384.956 330.877,386.21L330.877,387.011L329.186,387.011L329.186,386.632C329.186,386.268 328.643,386.089 328.221,386.089C327.542,386.089 327.073,386.329 327.073,386.784C327.073,387.991 331.164,387.749 331.164,390.315C331.164,391.764 329.881,392.671 328.205,392.671C326.092,392.671 325.006,391.296 325.006,391.296L325.91,390.044Z" style="fill:rgb(35,31,32);fill-rule:nonzero;"/>
        <path d="M336.615,384.608C337.612,384.608 339.409,385.016 339.409,386.345L339.409,387.251L337.717,387.251L337.717,386.829C337.717,386.405 337.083,386.223 336.615,386.223C335.287,386.223 334.336,387.235 334.336,388.624C334.336,390.194 335.499,390.995 336.736,390.995C338.051,390.995 339.017,389.954 339.017,389.954L339.816,391.282C339.816,391.282 338.669,392.671 336.57,392.671C334.034,392.671 332.404,390.874 332.404,388.639C332.404,386.466 333.973,384.608 336.615,384.608Z" style="fill:rgb(35,31,32);fill-rule:nonzero;"/>
        <path d="M344.953,391.04C346.206,391.04 347.247,390.073 347.247,388.639C347.247,387.22 346.206,386.239 344.953,386.239C343.715,386.239 342.672,387.22 342.672,388.639C342.672,390.073 343.715,391.04 344.953,391.04ZM344.953,384.608C347.308,384.608 349.18,386.284 349.18,388.639C349.18,391.011 347.308,392.671 344.953,392.671C342.613,392.671 340.741,391.011 340.741,388.639C340.741,386.284 342.613,384.608 344.953,384.608Z" style="fill:rgb(35,31,32);fill-rule:nonzero;"/>
        <path d="M350.997,386.313L350,386.313L350,384.792L351.043,384.792L351.043,382.692L352.915,382.692L352.915,384.792L354.665,384.792L354.665,386.313L352.915,386.313L352.915,389.425C352.915,390.692 353.911,390.874 354.44,390.874C354.651,390.874 354.787,390.843 354.787,390.843L354.787,392.518C354.787,392.518 354.544,392.565 354.198,392.565C353.125,392.565 350.997,392.249 350.997,389.667L350.997,386.313Z" style="fill:rgb(35,31,32);fill-rule:nonzero;"/>
        <path d="M361.102,387.643C361.072,386.723 360.438,386.089 359.652,386.089C358.672,386.089 357.977,386.677 357.765,387.643L361.102,387.643ZM359.652,384.608C361.859,384.608 363.065,386.223 363.065,388.262C363.065,388.489 363.02,388.971 363.02,388.971L357.706,388.971C357.856,390.331 358.852,391.04 360.015,391.04C361.252,391.04 362.173,390.178 362.173,390.178L362.975,391.507C362.975,391.507 361.795,392.671 359.879,392.671C357.328,392.671 355.743,390.829 355.743,388.639C355.743,386.268 357.343,384.608 359.652,384.608Z" style="fill:rgb(35,31,32);fill-rule:nonzero;"/>
        <path d="M365.235,381.77L366.895,381.77L366.895,383.538L365.235,383.538L365.235,381.77ZM365.147,386.753C365.147,386.526 365.024,386.421 364.813,386.421L364.209,386.421L364.209,384.792L366.036,384.792C366.745,384.792 367.047,385.108 367.047,385.817L367.047,390.542C367.047,390.753 367.168,390.874 367.378,390.874L367.983,390.874L367.983,392.489L366.156,392.489C365.446,392.489 365.147,392.186 365.147,391.464L365.147,386.753Z" style="fill:rgb(35,31,32);fill-rule:nonzero;"/>
        <path d="M369.768,386.753C369.768,386.526 369.647,386.421 369.436,386.421L368.832,386.421L368.832,384.792L370.583,384.792C371.262,384.792 371.61,385.077 371.61,385.725L371.61,386.178C371.61,386.466 371.581,386.663 371.581,386.663L371.61,386.663C371.957,385.561 372.879,384.684 374.057,384.684C374.223,384.684 374.403,384.716 374.403,384.716L374.403,386.6C374.403,386.6 374.206,386.571 373.934,386.571C373.12,386.571 372.184,387.04 371.836,388.186C371.731,388.563 371.669,388.987 371.669,389.438L371.669,392.489L369.768,392.489L369.768,386.753Z" style="fill:rgb(35,31,32);fill-rule:nonzero;"/>
        <path d="M379.53,391.04C380.782,391.04 381.824,390.073 381.824,388.639C381.824,387.22 380.782,386.239 379.53,386.239C378.291,386.239 377.249,387.22 377.249,388.639C377.249,390.073 378.291,391.04 379.53,391.04ZM379.53,384.608C381.883,384.608 383.756,386.284 383.756,388.639C383.756,391.011 381.883,392.671 379.53,392.671C377.19,392.671 375.317,391.011 375.317,388.639C375.317,386.284 377.19,384.608 379.53,384.608Z" style="fill:rgb(35,31,32);fill-rule:nonzero;"/>
        <path d="M385.711,390.044C385.711,390.044 386.694,391.177 388.008,391.177C388.596,391.177 389.049,390.934 389.049,390.421C389.049,389.335 384.989,389.348 384.989,386.858C384.989,385.319 386.376,384.608 387.977,384.608C389.018,384.608 390.678,384.956 390.678,386.21L390.678,387.011L388.989,387.011L388.989,386.632C388.989,386.268 388.446,386.089 388.022,386.089C387.342,386.089 386.874,386.329 386.874,386.784C386.874,387.991 390.965,387.749 390.965,390.315C390.965,391.764 389.682,392.671 388.008,392.671C385.893,392.671 384.806,391.296 384.806,391.296L385.711,390.044Z" style="fill:rgb(35,31,32);fill-rule:nonzero;"/>
        <path d="M398.237,388.686C398.237,387.145 397.453,385.636 395.822,385.636C394.478,385.636 393.375,386.768 393.375,388.686C393.375,390.557 394.358,391.749 395.777,391.749C397.043,391.749 398.237,390.843 398.237,388.686ZM395.73,384.716C397.573,384.716 398.207,386.134 398.207,386.134L398.237,386.134C398.237,386.134 398.207,385.878 398.207,385.561L398.207,383.1C398.207,382.889 398.086,382.766 397.874,382.766L397.241,382.766L397.241,381.876L398.313,381.876C398.961,381.876 399.233,382.147 399.233,382.798L399.233,391.266C399.233,391.493 399.354,391.598 399.566,391.598L400.199,391.598L400.199,392.489L399.142,392.489C398.508,392.489 398.237,392.202 398.237,391.643C398.237,391.358 398.266,391.161 398.266,391.161L398.237,391.161C398.237,391.161 397.618,392.671 395.625,392.671C393.586,392.671 392.319,391.04 392.319,388.686C392.319,386.284 393.738,384.716 395.73,384.716Z" style="fill:rgb(35,31,32);fill-rule:nonzero;"/>
        <path d="M405.342,391.749C406.957,391.749 408.285,390.421 408.285,388.655C408.285,386.932 406.957,385.651 405.342,385.651C403.711,385.651 402.381,386.932 402.381,388.655C402.381,390.421 403.711,391.749 405.342,391.749ZM405.327,384.716C407.546,384.716 409.342,386.405 409.342,388.655C409.342,390.95 407.546,392.671 405.342,392.671C403.122,392.671 401.325,390.95 401.325,388.655C401.325,386.405 403.122,384.716 405.327,384.716Z" style="fill:rgb(35,31,32);fill-rule:nonzero;"/>
        <path d="M413.799,390.813L415.338,390.813C416.305,390.813 416.848,390.165 416.848,389.259C416.848,388.368 416.29,387.72 415.338,387.72L413.466,387.72L413.466,390.481C413.466,390.692 413.588,390.813 413.799,390.813ZM415.158,386.149C415.987,386.149 416.456,385.546 416.456,384.776C416.456,384.005 416.003,383.448 415.127,383.448L413.466,383.448L413.466,386.149L415.158,386.149ZM411.489,383.448L410.509,383.448L410.973,381.77L415.142,381.77C417.075,381.77 418.463,382.766 418.463,384.534C418.463,385.725 417.815,386.497 417.165,386.829L417.165,386.858C418.329,387.206 418.887,388.292 418.887,389.38C418.887,391.522 417.18,392.489 415.187,392.489L412.514,392.489C411.807,392.489 411.489,392.186 411.489,391.464L411.489,383.448Z" style="fill:rgb(35,31,32);fill-rule:nonzero;"/>
        <path d="M420.974,386.753C420.974,386.526 420.853,386.421 420.642,386.421L420.04,386.421L420.04,384.792L421.79,384.792C422.469,384.792 422.817,385.077 422.817,385.725L422.817,386.178C422.817,386.466 422.787,386.663 422.787,386.663L422.817,386.663C423.165,385.561 424.084,384.684 425.262,384.684C425.428,384.684 425.61,384.716 425.61,384.716L425.61,386.6C425.61,386.6 425.413,386.571 425.141,386.571C424.327,386.571 423.39,387.04 423.043,388.186C422.936,388.563 422.876,388.987 422.876,389.438L422.876,392.489L420.974,392.489L420.974,386.753Z" style="fill:rgb(35,31,32);fill-rule:nonzero;"/>
        <path d="M429.548,391.177C430.575,391.177 431.299,390.089 431.299,389.153L431.299,388.971L430.967,388.971C429.97,388.971 428.385,389.108 428.385,390.178C428.385,390.692 428.762,391.177 429.548,391.177ZM431.028,387.659L431.269,387.659L431.269,387.598C431.269,386.497 430.831,386.089 429.85,386.089C429.502,386.089 428.824,386.178 428.824,386.6L428.824,387.011L427.042,387.011L427.042,386.194C427.042,384.761 429.065,384.608 429.864,384.608C432.432,384.608 433.186,385.952 433.186,387.673L433.186,390.542C433.186,390.753 433.307,390.874 433.519,390.874L434.124,390.874L434.124,392.489L432.401,392.489C431.692,392.489 431.42,392.096 431.42,391.643C431.42,391.448 431.435,391.311 431.435,391.311L431.405,391.311C431.405,391.311 430.817,392.671 429.082,392.671C427.707,392.671 426.454,391.809 426.454,390.27C426.454,387.854 429.774,387.659 431.028,387.659Z" style="fill:rgb(35,31,32);fill-rule:nonzero;"/>
        <path d="M436.097,390.044C436.097,390.044 437.077,391.177 438.391,391.177C438.979,391.177 439.432,390.934 439.432,390.421C439.432,389.335 435.372,389.348 435.372,386.858C435.372,385.319 436.76,384.608 438.36,384.608C439.403,384.608 441.063,384.956 441.063,386.21L441.063,387.011L439.373,387.011L439.373,386.632C439.373,386.268 438.829,386.089 438.407,386.089C437.727,386.089 437.258,386.329 437.258,386.784C437.258,387.991 441.349,387.749 441.349,390.315C441.349,391.764 440.067,392.671 438.391,392.671C436.278,392.671 435.189,391.296 435.189,391.296L436.097,390.044Z" style="fill:rgb(35,31,32);fill-rule:nonzero;"/>
        <path d="M443.484,381.77L445.143,381.77L445.143,383.538L443.484,383.538L443.484,381.77ZM443.392,386.753C443.392,386.526 443.272,386.421 443.061,386.421L442.457,386.421L442.457,384.792L444.284,384.792C444.993,384.792 445.294,385.108 445.294,385.817L445.294,390.542C445.294,390.753 445.415,390.874 445.626,390.874L446.231,390.874L446.231,392.489L444.404,392.489C443.695,392.489 443.392,392.186 443.392,391.464L443.392,386.753Z" style="fill:rgb(35,31,32);fill-rule:nonzero;"/>
        <path d="M447.849,383.733C447.849,383.507 447.727,383.401 447.516,383.401L446.912,383.401L446.912,381.77L448.739,381.77C449.45,381.77 449.766,382.089 449.766,382.798L449.766,390.542C449.766,390.753 449.887,390.874 450.098,390.874L450.686,390.874L450.686,392.489L448.874,392.489C448.151,392.489 447.849,392.186 447.849,391.464L447.849,383.733Z" style="fill:rgb(35,31,32);fill-rule:nonzero;"/>
        <path d="M295.654,395.895C295.632,395.934 295.609,395.975 295.58,396.014C295.61,395.975 295.631,395.936 295.654,395.895Z" style="fill:rgb(35,31,32);fill-rule:nonzero;"/>
        <path d="M295.75,395.721C295.762,395.692 295.764,395.659 295.774,395.63C295.759,395.675 295.747,395.72 295.727,395.762C295.735,395.749 295.744,395.735 295.75,395.721Z" style="fill:rgb(35,31,32);fill-rule:nonzero;"/>
        <path d="M293.813,402.477C293.797,402.409 293.779,402.343 293.77,402.274C293.779,402.343 293.797,402.409 293.813,402.477Z" style="fill:rgb(35,31,32);fill-rule:nonzero;"/>
        <path d="M295.112,396.444C295.02,396.52 294.951,396.591 294.895,396.663C294.963,396.587 295.033,396.511 295.11,396.448C295.209,396.368 295.312,396.296 295.405,396.21C295.409,396.206 295.413,396.2 295.417,396.196C295.414,396.2 295.411,396.202 295.406,396.206C295.312,396.292 295.209,396.366 295.112,396.444Z" style="fill:rgb(35,31,32);fill-rule:nonzero;"/>
        <path d="M295.825,395.212C295.829,395.303 295.825,395.397 295.81,395.489C295.825,395.397 295.829,395.305 295.825,395.212Z" style="fill:rgb(35,31,32);fill-rule:nonzero;"/>
        <path d="M293.109,372.428C293.226,372.825 293.338,373.22 293.449,373.612C293.558,374.001 293.663,374.386 293.769,374.766C293.863,375.11 293.948,375.46 294.013,375.815C294.044,375.991 294.071,376.169 294.092,376.345C294.071,376.167 294.047,375.989 294.014,375.811C293.807,374.667 293.441,373.54 293.111,372.425C292.993,372.026 292.871,371.626 292.742,371.223C292.612,370.821 292.477,370.417 292.33,370.014C292.33,370.014 292.329,370.014 292.329,370.016C292.473,370.419 292.61,370.823 292.739,371.227C292.868,371.63 292.991,372.03 293.109,372.428Z" style="fill:rgb(35,31,32);fill-rule:nonzero;"/>
        <path d="M291.107,371.583C291.29,371.325 291.484,371.063 291.69,370.802C291.864,370.579 292.048,370.354 292.234,370.134C292.048,370.352 291.865,370.575 291.693,370.798C291.487,371.059 291.293,371.321 291.108,371.581C291.094,371.6 291.082,371.618 291.068,371.637C291.081,371.62 291.093,371.6 291.107,371.583Z" style="fill:rgb(35,31,32);fill-rule:nonzero;"/>
        <path d="M294.964,392.766C294.972,392.727 294.979,392.686 294.99,392.647C294.982,392.671 294.974,392.694 294.968,392.72C294.964,392.735 294.968,392.751 294.964,392.766Z" style="fill:rgb(35,31,32);fill-rule:nonzero;"/>
        <path d="M290.687,375.483C290.727,375.417 290.767,375.35 290.809,375.286C290.771,375.345 290.732,375.407 290.687,375.483Z" style="fill:rgb(35,31,32);fill-rule:nonzero;"/>
        <path d="M297.501,389.522C297.48,389.561 297.459,389.598 297.437,389.634C297.029,390.3 296.41,390.641 295.867,391.171C295.857,391.178 295.85,391.192 295.839,391.202C295.848,391.194 295.856,391.182 295.865,391.173C296.407,390.645 297.027,390.303 297.436,389.637C297.457,389.6 297.479,389.563 297.5,389.526C297.515,389.503 297.519,389.497 297.522,389.487C297.522,389.489 297.521,389.489 297.52,389.491C297.52,389.491 297.518,389.495 297.501,389.522Z" style="fill:rgb(35,31,32);fill-rule:nonzero;"/>
        <path d="M290.496,375.829C290.537,375.749 290.581,375.669 290.624,375.591C290.581,375.669 290.54,375.745 290.496,375.829Z" style="fill:rgb(35,31,32);fill-rule:nonzero;"/>
        <path d="M290.853,375.218C290.877,375.178 290.902,375.141 290.928,375.104C290.91,375.128 290.888,375.163 290.853,375.218Z" style="fill:rgb(35,31,32);fill-rule:nonzero;"/>
        <path d="M295.043,392.448C295.056,392.411 295.066,392.374 295.08,392.339C295.073,392.358 295.064,392.376 295.058,392.395C295.051,392.413 295.049,392.43 295.043,392.448Z" style="fill:rgb(35,31,32);fill-rule:nonzero;"/>
        <path d="M293.781,379.014C293.546,379.596 293.496,380.268 293.627,380.882C293.635,380.915 293.65,380.948 293.66,380.983C293.651,380.946 293.638,380.913 293.629,380.876C293.497,380.264 293.549,379.593 293.784,379.012C293.79,378.997 293.796,378.981 293.802,378.966C293.867,378.811 293.919,378.655 293.964,378.495C293.919,378.655 293.865,378.811 293.799,378.968C293.793,378.981 293.789,378.997 293.781,379.014Z" style="fill:rgb(35,31,32);fill-rule:nonzero;"/>
        <path d="M295.425,391.698C295.443,391.671 295.461,391.645 295.48,391.618C295.472,391.63 295.462,391.637 295.454,391.649C295.444,391.665 295.435,391.682 295.425,391.698Z" style="fill:rgb(35,31,32);fill-rule:nonzero;"/>
        <path d="M295.118,392.239C295.113,392.255 295.106,392.27 295.101,392.288C295.127,392.221 295.159,392.163 295.184,392.098C295.182,392.102 295.18,392.104 295.178,392.108C295.168,392.132 295.127,392.218 295.118,392.239Z" style="fill:rgb(35,31,32);fill-rule:nonzero;"/>
        <path d="M296.614,395.446C296.603,395.456 296.593,395.464 296.582,395.473C296.736,395.354 296.881,395.231 296.994,395.081C296.972,395.11 296.953,395.139 296.928,395.165C296.836,395.266 296.725,395.358 296.614,395.446Z" style="fill:rgb(35,31,32);fill-rule:nonzero;"/>
        <path d="M294.109,377.749C294.105,377.79 294.101,377.827 294.095,377.866C294.101,377.827 294.105,377.79 294.109,377.749Z" style="fill:rgb(35,31,32);fill-rule:nonzero;"/>
        <path d="M296.729,391.075C296.692,391.134 296.65,391.19 296.618,391.249C296.65,391.19 296.692,391.132 296.729,391.075Z" style="fill:rgb(35,31,32);fill-rule:nonzero;"/>
        <path d="M295.369,400.268C295.335,400.341 295.304,400.415 295.283,400.491C295.306,400.415 295.337,400.341 295.369,400.268Z" style="fill:rgb(35,31,32);fill-rule:nonzero;"/>
        <path d="M295.471,400.073C295.449,400.11 295.426,400.147 295.405,400.184C295.426,400.145 295.449,400.112 295.471,400.073Z" style="fill:rgb(35,31,32);fill-rule:nonzero;"/>
        <path d="M294.071,378.009C294.05,378.139 294.023,378.268 293.989,378.397C294.022,378.268 294.05,378.139 294.071,378.009Z" style="fill:rgb(35,31,32);fill-rule:nonzero;"/>
        <path d="M294.135,376.899C294.146,377.145 294.14,377.391 294.119,377.634C294.14,377.389 294.146,377.145 294.135,376.899Z" style="fill:rgb(35,31,32);fill-rule:nonzero;"/>
        <path d="M294.093,376.356C294.113,376.52 294.126,376.686 294.133,376.852C294.127,376.686 294.113,376.52 294.093,376.356Z" style="fill:rgb(35,31,32);fill-rule:nonzero;"/>
        <path d="M296.367,392.69C296.413,392.778 296.461,392.86 296.512,392.94C296.535,392.981 296.562,393.018 296.588,393.059C296.562,393.018 296.538,392.979 296.514,392.936C296.499,392.911 296.483,392.882 296.47,392.856C296.31,392.548 296.291,392.233 296.358,391.917C296.329,392.046 296.311,392.167 296.306,392.272C296.3,392.46 296.326,392.608 296.367,392.69Z" style="fill:rgb(35,31,32);fill-rule:nonzero;"/>
        <path d="M296.374,391.862C296.395,391.774 296.421,391.686 296.453,391.598C296.47,391.555 296.495,391.511 296.514,391.468C296.495,391.511 296.468,391.555 296.452,391.598C296.416,391.69 296.395,391.776 296.374,391.862Z" style="fill:rgb(35,31,32);fill-rule:nonzero;"/>
        <path d="M297.02,397.811C297.002,397.934 296.947,398.069 296.84,398.227C296.832,398.239 296.825,398.251 296.817,398.262C296.825,398.249 296.834,398.239 296.844,398.227C296.949,398.069 297.003,397.934 297.021,397.811C297.024,397.796 297.025,397.78 297.027,397.764C297.027,397.757 297.022,397.749 297.023,397.739C297.022,397.749 297.024,397.759 297.024,397.768C297.023,397.782 297.021,397.796 297.02,397.811Z" style="fill:rgb(35,31,32);fill-rule:nonzero;"/>
        <path d="M298.474,386.499C298.587,386.577 298.703,386.659 298.811,386.747C298.919,386.835 299.018,386.928 299.095,387.032C299.172,387.134 299.228,387.245 299.251,387.37C299.277,387.514 299.281,387.663 299.265,387.815C299.255,387.905 299.239,387.999 299.216,388.091C299.155,388.339 299.049,388.587 298.914,388.825C298.776,389.063 298.608,389.29 298.422,389.491C298.235,389.69 298.031,389.866 297.822,390.001C297.437,390.251 297.143,390.524 296.92,390.796C296.916,390.803 296.913,390.807 296.909,390.813C296.913,390.807 296.917,390.802 296.921,390.796C297.144,390.524 297.438,390.251 297.824,390.001C298.033,389.866 298.237,389.69 298.425,389.489C298.61,389.29 298.778,389.063 298.914,388.825C299.052,388.587 299.158,388.339 299.218,388.089C299.241,387.997 299.257,387.903 299.268,387.811C299.283,387.659 299.279,387.511 299.254,387.366C299.23,387.241 299.175,387.13 299.097,387.028C299.02,386.925 298.922,386.831 298.814,386.745C298.707,386.655 298.589,386.575 298.476,386.497C298.363,386.419 298.251,386.333 298.137,386.253C298.144,386.259 298.151,386.262 298.157,386.268C298.251,386.345 298.361,386.421 298.474,386.499Z" style="fill:rgb(35,31,32);fill-rule:nonzero;"/>
        <path d="M296.113,384.596C295.887,384.374 295.67,384.145 295.471,383.907C295.446,383.878 295.421,383.845 295.395,383.815C295.421,383.845 295.444,383.878 295.468,383.909C295.676,384.159 295.892,384.386 296.113,384.596Z" style="fill:rgb(35,31,32);fill-rule:nonzero;"/>
        <path d="M297.125,394.85C297.127,394.843 297.136,394.839 297.138,394.831C297.169,394.731 297.186,394.637 297.193,394.548C297.184,394.637 297.168,394.729 297.136,394.831C297.133,394.839 297.127,394.843 297.125,394.85Z" style="fill:rgb(35,31,32);fill-rule:nonzero;"/>
        <path d="M296.975,397.477C296.978,397.485 296.979,397.493 296.98,397.499C296.978,397.491 296.98,397.481 296.978,397.473C296.935,397.37 296.869,397.268 296.795,397.161C296.78,397.141 296.762,397.12 296.748,397.098C296.762,397.12 296.778,397.145 296.793,397.165C296.866,397.27 296.932,397.372 296.975,397.477Z" style="fill:rgb(35,31,32);fill-rule:nonzero;"/>
        <path d="M296.099,396.001C296.092,396.018 296.087,396.038 296.084,396.055C296.077,396.112 296.085,396.167 296.106,396.221C296.132,396.294 296.18,396.364 296.235,396.434C296.248,396.452 296.263,396.466 296.279,396.483C296.264,396.466 296.251,396.446 296.237,396.43C296.182,396.36 296.136,396.29 296.109,396.216C296.088,396.163 296.079,396.108 296.087,396.053C296.09,396.036 296.094,396.018 296.101,395.999C296.117,395.952 296.144,395.905 296.176,395.86C296.231,395.78 296.302,395.716 296.374,395.651C296.352,395.671 296.323,395.69 296.302,395.712C296.21,395.803 296.136,395.895 296.099,396.001Z" style="fill:rgb(35,31,32);fill-rule:nonzero;"/>
        <path d="M293.326,394.448C293.35,394.415 293.37,394.382 293.397,394.354L293.396,394.354C293.37,394.382 293.349,394.415 293.326,394.448Z" style="fill:rgb(35,31,32);fill-rule:nonzero;"/>
        <path d="M291.398,379.956L291.398,379.948L291.398,379.956Z" style="fill:rgb(35,31,32);fill-rule:nonzero;"/>
        <path d="M292.596,390.759C292.606,390.725 292.617,390.692 292.629,390.657C292.618,390.686 292.597,390.725 292.596,390.755L292.596,390.759Z" style="fill:rgb(35,31,32);fill-rule:nonzero;"/>
        <path d="M292.11,400.208C292.095,400.427 292.05,400.673 291.974,400.932C292.046,400.698 292.098,400.454 292.11,400.208Z" style="fill:rgb(35,31,32);fill-rule:nonzero;"/>
        <path d="M292.916,392.085C292.97,392.161 293.03,392.235 293.082,392.315C293.033,392.237 292.974,392.161 292.916,392.085Z" style="fill:rgb(35,31,32);fill-rule:nonzero;"/>
        <path d="M290.947,383.413C291.055,383.569 291.169,383.721 291.288,383.868C291.172,383.716 291.052,383.561 290.947,383.413Z" style="fill:rgb(35,31,32);fill-rule:nonzero;"/>
        <path d="M291.495,401.96C291.554,401.866 291.612,401.774 291.665,401.677C291.67,401.661 291.677,401.647 291.685,401.632C291.619,401.755 291.546,401.878 291.464,402.001C291.474,401.985 291.491,401.968 291.495,401.96Z" style="fill:rgb(35,31,32);fill-rule:nonzero;"/>
        <path d="M293.013,390.001C293.093,389.901 293.191,389.803 293.298,389.706C293.194,389.794 293.101,389.891 293.013,390.001Z" style="fill:rgb(35,31,32);fill-rule:nonzero;"/>
        <path d="M291.374,379.52L291.373,379.522C291.373,379.528 291.375,379.532 291.375,379.538C291.375,379.532 291.374,379.526 291.374,379.52Z" style="fill:rgb(35,31,32);fill-rule:nonzero;"/>
        <path d="M291.398,379.913L291.398,379.925C291.398,379.882 291.396,379.839 291.395,379.798C291.391,379.819 291.395,379.845 291.396,379.868C291.396,379.882 291.398,379.899 291.398,379.913Z" style="fill:rgb(35,31,32);fill-rule:nonzero;"/>
        <path d="M291.358,402.128C291.359,402.128 291.362,402.122 291.363,402.122C291.361,402.122 291.359,402.124 291.357,402.124C291.248,402.272 291.124,402.417 290.984,402.555C291.077,402.464 291.164,402.368 291.248,402.266C291.286,402.22 291.32,402.171 291.358,402.128Z" style="fill:rgb(35,31,32);fill-rule:nonzero;"/>
        <path d="M293.397,394.354C293.417,394.333 293.437,394.313 293.458,394.294L293.459,394.292C293.457,394.296 293.454,394.296 293.451,394.3C293.433,394.317 293.415,394.335 293.397,394.354Z" style="fill:rgb(35,31,32);fill-rule:nonzero;"/>
        <path d="M292.873,400.374C292.875,400.425 292.883,400.473 292.881,400.524C292.883,400.473 292.875,400.425 292.873,400.374Z" style="fill:rgb(35,31,32);fill-rule:nonzero;"/>
        <path d="M292.829,400.887C292.84,400.846 292.84,400.805 292.848,400.762C292.837,400.811 292.835,400.858 292.823,400.905C292.825,400.899 292.828,400.893 292.829,400.887Z" style="fill:rgb(35,31,32);fill-rule:nonzero;"/>
        <path d="M292.938,397.852C292.998,397.784 293.057,397.716 293.111,397.645C293.054,397.72 292.989,397.792 292.926,397.864C292.93,397.862 292.934,397.856 292.938,397.852Z" style="fill:rgb(35,31,32);fill-rule:nonzero;"/>
        <path d="M292.751,401.11C292.732,401.161 292.718,401.214 292.695,401.264C292.718,401.214 292.732,401.161 292.751,401.11Z" style="fill:rgb(35,31,32);fill-rule:nonzero;"/>
        <path d="M293.279,394.511C293.248,394.567 293.229,394.63 293.232,394.696C293.229,394.63 293.248,394.567 293.279,394.511Z" style="fill:rgb(35,31,32);fill-rule:nonzero;"/>
        <path d="M292.722,398.112C292.735,398.095 292.749,398.075 292.762,398.057C292.755,398.067 292.748,398.075 292.742,398.085C292.735,398.093 292.727,398.102 292.722,398.112Z" style="fill:rgb(35,31,32);fill-rule:nonzero;"/>
        <path d="M293.538,390.831C293.585,390.71 293.644,390.591 293.711,390.477C293.777,390.364 293.853,390.255 293.935,390.153C293.853,390.255 293.777,390.364 293.71,390.477C293.644,390.591 293.585,390.71 293.538,390.831Z" style="fill:rgb(35,31,32);fill-rule:nonzero;"/>
        <path d="M292.598,398.329C292.628,398.257 292.666,398.19 292.709,398.13C292.701,398.139 292.693,398.151 292.687,398.163C292.651,398.216 292.622,398.27 292.598,398.329Z" style="fill:rgb(35,31,32);fill-rule:nonzero;"/>
        <path d="M293.787,394.028C293.793,394.022 293.799,394.016 293.807,394.009C293.799,394.016 293.792,394.022 293.786,394.028L293.787,394.028Z" style="fill:rgb(35,31,32);fill-rule:nonzero;"/>
        <path d="M293.418,391.376C293.417,391.38 293.418,391.384 293.418,391.389C293.42,391.366 293.42,391.345 293.422,391.321C293.424,391.296 293.429,391.27 293.433,391.245C293.429,391.27 293.424,391.296 293.422,391.319C293.42,391.339 293.418,391.358 293.418,391.376Z" style="fill:rgb(35,31,32);fill-rule:nonzero;"/>
        <path d="M309.404,387.71C308.994,386.436 308.198,385.29 307.171,384.458C306.219,383.684 305.065,383.214 303.864,383.05C302.422,382.852 300.997,383.188 299.72,383.88C299.418,384.042 299.119,384.221 298.821,384.423C298.934,384.272 299.028,384.13 299.106,383.995C299.266,383.725 299.367,383.495 299.438,383.323C299.617,382.915 299.761,382.475 299.878,382.03C299.993,381.583 300.081,381.132 300.136,380.702C300.192,380.272 300.217,379.864 300.212,379.509C300.206,379.096 300.172,378.675 300.108,378.255C300.046,377.831 299.954,377.405 299.835,376.991C299.713,376.573 299.564,376.163 299.384,375.774C299.205,375.384 298.995,375.011 298.756,374.671C298.422,374.19 298.069,373.677 297.696,373.143C297.321,372.606 296.923,372.053 296.503,371.497C296.077,370.936 295.629,370.378 295.153,369.835C294.671,369.286 294.163,368.755 293.623,368.264C293.608,368.249 293.59,368.237 293.571,368.225C293.553,368.216 293.533,368.206 293.511,368.198C293.489,368.19 293.467,368.184 293.444,368.18C293.422,368.177 293.397,368.173 293.375,368.173C293.355,368.173 293.337,368.175 293.317,368.177C293.298,368.178 293.28,368.182 293.262,368.188C293.244,368.192 293.227,368.2 293.21,368.208C293.193,368.216 293.178,368.225 293.164,368.237C292.87,368.464 292.572,368.71 292.276,368.968C291.979,369.225 291.683,369.497 291.39,369.78C291.097,370.063 290.809,370.352 290.527,370.653C290.479,370.704 290.432,370.755 290.386,370.803C290.634,371.065 290.861,371.345 291.068,371.636L291.068,371.637C291.082,371.618 291.094,371.6 291.108,371.581C291.293,371.321 291.487,371.059 291.693,370.798C291.865,370.575 292.048,370.352 292.234,370.134C292.266,370.095 292.296,370.055 292.329,370.016C292.329,370.014 292.33,370.014 292.33,370.014C292.477,370.417 292.612,370.821 292.742,371.223C292.871,371.626 292.993,372.026 293.111,372.425C293.441,373.54 293.807,374.667 294.014,375.811C294.047,375.989 294.071,376.167 294.092,376.345C294.092,376.348 294.092,376.352 294.093,376.356C294.113,376.52 294.127,376.686 294.133,376.852C294.134,376.868 294.135,376.884 294.135,376.899C294.146,377.145 294.14,377.389 294.119,377.634C294.116,377.673 294.114,377.71 294.109,377.749C294.105,377.79 294.101,377.827 294.095,377.866C294.088,377.915 294.08,377.962 294.071,378.009C294.05,378.139 294.022,378.268 293.989,378.397C293.981,378.43 293.974,378.462 293.964,378.495C293.919,378.655 293.867,378.811 293.802,378.966C293.796,378.981 293.79,378.997 293.784,379.012C293.549,379.593 293.497,380.264 293.629,380.876C293.638,380.913 293.651,380.946 293.66,380.983C293.922,382.016 294.722,383.003 295.395,383.815C295.421,383.845 295.446,383.878 295.471,383.907C295.67,384.145 295.887,384.374 296.113,384.596C296.733,385.208 297.437,385.751 298.137,386.253C298.251,386.333 298.363,386.419 298.476,386.497C298.589,386.575 298.707,386.655 298.814,386.745C298.922,386.831 299.02,386.925 299.097,387.028C299.175,387.13 299.23,387.241 299.254,387.366C299.279,387.511 299.283,387.659 299.268,387.811C299.257,387.903 299.241,387.997 299.218,388.089C299.158,388.339 299.052,388.587 298.914,388.825C298.778,389.063 298.61,389.29 298.425,389.489C298.237,389.69 298.033,389.866 297.824,390.001C297.438,390.251 297.144,390.524 296.921,390.796C296.917,390.802 296.913,390.807 296.909,390.813C296.878,390.852 296.85,390.889 296.822,390.928C296.787,390.977 296.761,391.026 296.729,391.075C296.692,391.132 296.65,391.19 296.618,391.249C296.577,391.323 296.545,391.395 296.514,391.468C296.495,391.511 296.47,391.555 296.453,391.598C296.421,391.686 296.395,391.774 296.374,391.862C296.37,391.882 296.362,391.899 296.358,391.917C296.291,392.233 296.31,392.548 296.47,392.856C296.483,392.882 296.499,392.911 296.514,392.936C296.538,392.979 296.562,393.018 296.588,393.059C296.883,393.54 297.24,393.985 297.193,394.548C297.186,394.637 297.169,394.731 297.138,394.831C297.136,394.839 297.127,394.843 297.125,394.85C297.095,394.938 297.046,395.011 296.994,395.081C296.881,395.231 296.736,395.354 296.582,395.473C296.509,395.53 296.441,395.589 296.374,395.651C296.302,395.716 296.231,395.78 296.176,395.86C296.144,395.905 296.117,395.952 296.101,395.999C296.094,396.018 296.09,396.036 296.087,396.053C296.079,396.108 296.088,396.163 296.109,396.216C296.136,396.29 296.182,396.36 296.237,396.43C296.251,396.446 296.264,396.466 296.279,396.483C296.438,396.686 296.596,396.889 296.748,397.098C296.762,397.12 296.78,397.141 296.795,397.161C296.869,397.268 296.935,397.37 296.978,397.473C296.98,397.481 296.978,397.491 296.98,397.499C297.01,397.575 297.024,397.655 297.023,397.739C297.022,397.749 297.027,397.757 297.027,397.764C297.025,397.78 297.024,397.796 297.021,397.811C297.003,397.934 296.949,398.069 296.844,398.227C296.834,398.239 296.825,398.249 296.817,398.262C296.549,398.657 296.29,399.03 295.979,399.391C295.793,399.606 295.614,399.829 295.471,400.073C295.449,400.112 295.426,400.145 295.405,400.184C295.393,400.212 295.382,400.241 295.369,400.268C295.337,400.341 295.306,400.415 295.283,400.491C295.279,400.501 295.275,400.509 295.272,400.516C295.258,400.565 295.25,400.616 295.243,400.667C295.24,400.686 295.234,400.704 295.231,400.723C295.219,400.841 295.221,400.96 295.237,401.083C295.258,401.276 295.309,401.477 295.373,401.682C295.435,401.887 295.511,402.098 295.583,402.311C295.623,402.43 295.645,402.587 295.648,402.772C295.65,402.866 295.646,402.964 295.636,403.069C295.628,403.175 295.614,403.286 295.594,403.403C295.589,403.427 295.584,403.452 295.577,403.477C295.518,403.745 295.383,404.136 295.375,404.192C295.909,403.632 296.532,402.981 297.209,402.61C297.333,402.542 297.44,402.483 297.558,402.511C297.958,402.6 298.295,402.755 298.718,402.782C298.986,402.8 299.254,402.794 299.522,402.768C299.65,402.757 299.78,402.741 299.908,402.72C301.656,402.446 303.118,401.536 303.819,399.829C303.826,399.811 303.828,399.792 303.826,399.774C303.822,399.757 303.816,399.737 303.803,399.72C303.792,399.704 303.776,399.688 303.758,399.678C303.742,399.665 303.72,399.659 303.695,399.653C303.626,399.643 303.561,399.634 303.492,399.622C303.427,399.614 303.36,399.602 303.293,399.593C301.879,399.391 300.336,398.915 299.289,397.88C297.861,396.473 297.235,392.37 299.587,391.505C300.304,391.241 301.223,391.249 301.861,391.7C301.978,391.782 302.092,391.876 302.202,391.981C302.312,392.087 302.416,392.204 302.513,392.329C302.609,392.456 302.696,392.591 302.767,392.737C302.84,392.882 302.9,393.036 302.944,393.196C302.985,393.356 303.009,393.526 303.013,393.7C303.017,393.872 302.999,394.053 302.956,394.239C302.949,394.272 302.938,394.305 302.929,394.341C302.886,394.491 302.827,394.647 302.746,394.803C302.745,394.807 302.742,394.813 302.738,394.817C302.735,394.821 302.735,394.825 302.731,394.829C302.73,394.833 302.729,394.837 302.727,394.841C302.725,394.845 302.723,394.846 302.722,394.85C302.713,394.866 302.709,394.886 302.712,394.905C302.714,394.923 302.722,394.942 302.735,394.96C302.745,394.975 302.762,394.991 302.779,395.003C302.798,395.014 302.821,395.022 302.844,395.026L302.846,395.028L302.861,395.028C303,395.034 303.138,395.04 303.274,395.042C303.412,395.044 303.546,395.042 303.68,395.038C305.421,394.981 307.209,394.475 308.415,393.118C309.042,392.411 309.445,391.55 309.615,390.624C309.787,389.686 309.718,388.686 309.404,387.71Z" style="fill:rgb(35,31,32);fill-rule:nonzero;"/>
        <path d="M286.972,386.206L287.244,386.745L286.651,386.634L286.223,387.059L286.145,386.46L285.607,386.186L286.154,385.927L286.249,385.331L286.665,385.768L287.261,385.677L286.972,386.206ZM287.244,391.272L286.603,391.153L286.143,391.612L286.059,390.966L285.478,390.669L286.067,390.389L286.17,389.747L286.618,390.22L287.261,390.12L286.949,390.692L287.244,391.272ZM284.736,388.647L284.664,388.1L284.174,387.848L284.673,387.612L284.759,387.067L285.139,387.468L285.683,387.382L285.42,387.868L285.669,388.36L285.126,388.259L284.736,388.647ZM283.231,386.413L283.146,385.757L282.556,385.454L283.154,385.171L283.26,384.514L283.714,384.997L284.37,384.893L284.053,385.477L284.353,386.067L283.701,385.946L283.231,386.413ZM283.044,389.352L282.405,389.233L281.946,389.69L281.864,389.048L281.286,388.751L281.872,388.475L281.975,387.833L282.421,388.305L283.061,388.206L282.75,388.774L283.044,389.352ZM291.363,402.122C291.383,402.098 291.431,402.042 291.464,402.001C291.546,401.878 291.619,401.755 291.685,401.632C291.772,401.466 291.851,401.292 291.913,401.114C291.928,401.077 291.939,401.04 291.952,401.003C291.96,400.979 291.967,400.956 291.974,400.932C292.05,400.673 292.095,400.427 292.11,400.208C292.113,400.198 292.113,400.186 292.114,400.177C292.114,400.139 292.115,400.104 292.114,400.067C292.111,399.702 291.979,399.364 291.869,399.024C291.811,398.85 291.765,398.682 291.743,398.518C291.721,398.356 291.723,398.198 291.765,398.048C291.805,397.897 291.887,397.753 292.018,397.618C292.126,397.509 292.224,397.393 292.316,397.274C292.408,397.155 292.495,397.032 292.577,396.905C292.597,396.876 292.618,396.845 292.637,396.813C292.699,396.72 292.761,396.622 292.821,396.528C292.9,396.401 292.979,396.278 293.062,396.159C293.149,396.028 293.193,395.915 293.206,395.813C293.22,395.712 293.202,395.62 293.164,395.532C293.126,395.444 293.068,395.358 293.004,395.27C292.94,395.18 292.868,395.089 292.802,394.985C292.77,394.934 292.723,394.88 292.672,394.825C292.622,394.768 292.568,394.714 292.52,394.655C292.474,394.595 292.433,394.536 292.408,394.477C292.385,394.415 292.378,394.356 292.398,394.296C292.428,394.208 292.489,394.132 292.565,394.059C292.64,393.985 292.735,393.915 292.825,393.843C292.918,393.768 293.009,393.694 293.088,393.612C293.117,393.581 293.142,393.55 293.166,393.516C293.206,393.46 293.237,393.401 293.257,393.337C293.317,393.143 293.325,392.975 293.296,392.819C293.269,392.665 293.205,392.522 293.127,392.386C293.113,392.362 293.098,392.339 293.082,392.315C293.03,392.235 292.97,392.161 292.916,392.085C292.811,391.944 292.705,391.802 292.628,391.649C292.562,391.516 292.518,391.378 292.518,391.229L292.518,391.212C292.518,391.095 292.538,390.958 292.579,390.809C292.584,390.794 292.59,390.774 292.596,390.759L292.596,390.755C292.597,390.725 292.618,390.686 292.629,390.657C292.706,390.45 292.829,390.225 293.013,390.001C293.101,389.891 293.194,389.794 293.298,389.706C293.433,389.583 293.581,389.466 293.76,389.35C293.935,389.239 294.106,389.096 294.259,388.93C294.414,388.766 294.553,388.579 294.664,388.386C294.776,388.19 294.861,387.985 294.908,387.78C294.955,387.577 294.963,387.376 294.924,387.186C294.903,387.087 294.853,386.993 294.786,386.909C294.719,386.825 294.635,386.749 294.541,386.675C294.449,386.606 294.351,386.538 294.253,386.473C294.191,386.432 294.13,386.391 294.073,386.352C294.041,386.329 294.01,386.305 293.982,386.284C293.867,386.194 293.749,386.104 293.634,386.016C293.518,385.927 293.401,385.837 293.283,385.747C293.165,385.659 293.046,385.569 292.928,385.479C292.884,385.448 292.842,385.415 292.799,385.382C292.722,385.323 292.645,385.266 292.568,385.208C292.266,384.981 291.968,384.684 291.689,384.366C291.601,384.264 291.516,384.163 291.434,384.059C291.381,383.995 291.338,383.932 291.288,383.868C291.169,383.721 291.055,383.569 290.947,383.413C290.936,383.399 290.924,383.384 290.913,383.37C290.888,383.331 290.86,383.294 290.832,383.255C290.569,382.891 290.278,382.532 290.141,382.098C289.997,381.643 290.046,381.159 290.145,380.7C290.176,380.555 290.208,380.442 290.23,380.386C290.287,380.253 290.332,380.118 290.369,379.981C290.403,379.845 290.434,379.704 290.455,379.563C290.494,379.282 290.5,378.999 290.481,378.714C290.464,378.427 290.423,378.139 290.365,377.858C290.308,377.575 290.233,377.296 290.148,377.024C290.124,376.936 290.095,376.848 290.07,376.759C290.06,376.784 290.048,376.807 290.038,376.831C289.926,377.102 289.823,377.38 289.732,377.657C289.643,377.934 289.566,378.214 289.507,378.497C289.447,378.78 289.403,379.065 289.383,379.354C289.355,379.712 289.355,380.118 289.387,380.546C289.415,380.971 289.474,381.417 289.561,381.852C289.648,382.288 289.764,382.712 289.912,383.098C290.056,383.483 290.233,383.833 290.439,384.118C290.167,383.956 289.888,383.811 289.605,383.684C289.319,383.555 289.029,383.448 288.735,383.356C288.441,383.262 288.142,383.188 287.842,383.134C286.231,382.831 284.473,383.057 283.042,383.897C282.532,384.196 282.06,384.557 281.644,384.981C280.84,385.802 280.279,386.749 279.965,387.729C279.65,388.704 279.583,389.706 279.753,390.643C279.922,391.569 280.326,392.428 280.955,393.137C281.887,394.186 283.212,394.751 284.563,394.956C284.933,395.012 285.313,395.048 285.689,395.057C285.823,395.063 285.958,395.063 286.095,395.063C286.231,395.059 286.369,395.055 286.508,395.048L286.523,395.048C286.525,395.048 286.526,395.046 286.526,395.046C286.549,395.044 286.572,395.034 286.59,395.022C286.607,395.011 286.623,394.997 286.635,394.977C286.646,394.962 286.654,394.942 286.657,394.925C286.661,394.905 286.657,394.887 286.646,394.87C286.646,394.866 286.644,394.864 286.643,394.86C286.641,394.858 286.639,394.854 286.638,394.848C286.635,394.845 286.633,394.843 286.63,394.837C286.628,394.833 286.624,394.827 286.622,394.821C286.525,394.63 286.456,394.442 286.413,394.259C286.369,394.073 286.353,393.893 286.355,393.72C286.358,393.544 286.384,393.378 286.426,393.216C286.469,393.053 286.529,392.901 286.602,392.757C286.674,392.612 286.76,392.475 286.856,392.348C286.953,392.223 287.057,392.106 287.165,392.003C287.952,391.249 289.228,391.02 290.14,391.673C290.249,391.751 290.351,391.841 290.447,391.942C291.04,392.567 291.27,393.464 291.27,394.315C291.27,395.157 291.134,396.073 290.827,396.86C290.736,397.093 290.622,397.317 290.473,397.536C290.026,398.196 289.353,398.651 288.636,398.954C288.425,399.044 288.201,399.124 287.969,399.196C287.354,399.389 286.714,399.522 286.075,399.612C286.01,399.622 285.942,399.634 285.876,399.643C285.81,399.653 285.743,399.663 285.673,399.673C285.649,399.677 285.628,399.686 285.611,399.698C285.593,399.708 285.577,399.723 285.566,399.739C285.554,399.757 285.548,399.774 285.544,399.794C285.54,399.811 285.543,399.829 285.55,399.848C285.727,400.28 285.94,400.663 286.176,400.997C286.929,402.061 288.006,402.761 289.258,402.708C289.807,402.708 290.419,402.69 290.984,402.555C291.124,402.417 291.248,402.272 291.357,402.124C291.359,402.124 291.361,402.122 291.363,402.122Z" style="fill:rgb(35,31,32);fill-rule:nonzero;"/>
        <path d="M291.398,380.026C291.399,380.003 291.399,379.977 291.398,379.954L291.398,380.026Z" style="fill:rgb(35,31,32);fill-rule:nonzero;"/>
        <path d="M294.258,403.944C294.249,403.761 294.22,403.606 294.175,403.489C294.051,403.169 293.892,402.825 293.813,402.477C293.797,402.409 293.779,402.343 293.77,402.274C293.758,402.149 293.753,402.022 293.773,401.895C293.777,401.864 293.786,401.833 293.792,401.802C293.81,401.688 293.841,401.575 293.89,401.462C294.291,400.542 295.2,399.964 295.584,399.022C295.609,398.964 295.628,398.901 295.64,398.841C295.665,398.714 295.656,398.585 295.609,398.464C295.345,397.796 294.378,397.317 294.895,396.663C294.951,396.591 295.02,396.52 295.112,396.444C295.209,396.366 295.312,396.292 295.406,396.206C295.411,396.202 295.414,396.2 295.417,396.196C295.45,396.165 295.484,396.13 295.515,396.096C295.531,396.077 295.549,396.059 295.563,396.04C295.57,396.032 295.575,396.022 295.58,396.014C295.609,395.975 295.632,395.934 295.654,395.895C295.68,395.852 295.707,395.809 295.727,395.762C295.747,395.72 295.759,395.675 295.774,395.63C295.784,395.596 295.799,395.567 295.806,395.534C295.81,395.518 295.806,395.505 295.81,395.489C295.825,395.397 295.829,395.303 295.825,395.212C295.825,395.192 295.83,395.171 295.829,395.151C295.758,394.407 294.97,393.936 294.933,393.21C294.926,393.061 294.94,392.913 294.964,392.766C294.968,392.751 294.964,392.735 294.968,392.72C294.974,392.694 294.982,392.671 294.99,392.647C295.003,392.581 295.022,392.512 295.043,392.448C295.049,392.43 295.051,392.413 295.058,392.395C295.064,392.376 295.073,392.358 295.08,392.339C295.086,392.321 295.094,392.303 295.101,392.288C295.106,392.27 295.113,392.255 295.118,392.239C295.127,392.218 295.168,392.132 295.178,392.108C295.18,392.104 295.182,392.102 295.184,392.098C295.248,391.96 295.335,391.825 295.425,391.698C295.435,391.682 295.444,391.665 295.454,391.649C295.462,391.637 295.472,391.63 295.48,391.618C295.588,391.471 295.709,391.331 295.839,391.202C295.85,391.192 295.857,391.178 295.867,391.171C296.41,390.641 297.029,390.3 297.437,389.634C297.459,389.598 297.48,389.561 297.501,389.522C297.518,389.495 297.52,389.491 297.52,389.491C297.521,389.489 297.522,389.489 297.522,389.487C297.523,389.487 297.523,389.485 297.525,389.483C297.909,388.788 298.098,387.919 297.419,387.348C296.231,386.339 294.911,385.493 293.95,384.241C293.057,383.079 291.89,381.708 292.168,380.157C292.256,379.673 292.463,379.237 292.588,378.764C292.727,378.237 292.769,377.686 292.747,377.141C292.707,376.171 292.573,375.2 292.309,374.266C292.04,373.321 291.627,372.427 291.068,371.637C290.899,371.878 290.74,372.114 290.593,372.345C290.47,372.538 290.184,373.001 290.157,373.048C290.092,373.167 290.026,373.286 289.959,373.407C289.956,373.413 289.952,373.421 289.949,373.428C289.885,373.542 289.823,373.657 289.762,373.77C289.695,373.891 289.63,374.012 289.564,374.137C289.498,374.261 289.432,374.386 289.367,374.509C289.441,374.72 289.51,374.928 289.578,375.139C289.645,375.348 289.711,375.555 289.776,375.764C289.839,375.971 289.902,376.177 289.965,376.382C290,376.497 290.034,376.612 290.07,376.727C290.174,376.477 290.283,376.231 290.397,375.989C290.401,375.995 290.401,376.003 290.403,376.009C290.409,375.999 290.414,375.989 290.419,375.979C290.429,375.96 290.437,375.938 290.447,375.919C290.462,375.889 290.479,375.86 290.496,375.829C290.54,375.745 290.581,375.669 290.624,375.591C290.634,375.577 290.64,375.561 290.649,375.546C290.662,375.524 290.675,375.505 290.687,375.483C290.732,375.407 290.771,375.345 290.809,375.286C290.817,375.272 290.826,375.259 290.833,375.245C290.839,375.235 290.846,375.227 290.853,375.218C290.888,375.163 290.91,375.128 290.928,375.104C290.933,375.096 290.938,375.089 290.942,375.081C290.943,375.081 290.947,375.077 290.947,375.077C291.07,375.364 291.175,375.663 291.262,375.968C291.479,376.735 291.59,377.534 291.622,378.331C291.639,378.778 291.605,379.231 291.489,379.665C291.462,379.762 291.432,379.86 291.398,379.954C291.399,379.977 291.399,380.003 291.398,380.026L291.398,379.956C291.303,380.239 291.192,380.512 291.139,380.809C291.094,381.048 291.092,381.28 291.124,381.507C291.256,382.499 292.01,383.393 292.612,384.171C293.408,385.2 294.501,385.903 295.489,386.729C296.093,387.237 295.867,388.018 295.501,388.608C295.161,389.157 294.646,389.434 294.193,389.87C294.102,389.96 294.016,390.053 293.935,390.153C293.853,390.255 293.777,390.364 293.711,390.477C293.644,390.591 293.585,390.71 293.538,390.831C293.493,390.954 293.457,391.079 293.437,391.206C293.435,391.22 293.433,391.233 293.433,391.245C293.429,391.27 293.424,391.296 293.422,391.321C293.42,391.345 293.42,391.366 293.418,391.389C293.415,391.442 293.415,391.493 293.417,391.548C293.439,391.948 293.743,392.257 293.956,392.6C294.059,392.768 294.14,392.944 294.157,393.143C294.187,393.491 294.061,393.78 293.807,394.009C293.799,394.016 293.793,394.022 293.787,394.028L293.786,394.028C293.732,394.073 293.676,394.116 293.619,394.161C293.589,394.182 293.558,394.208 293.526,394.233C293.504,394.253 293.481,394.272 293.459,394.292L293.458,394.294C293.437,394.313 293.417,394.333 293.397,394.354C293.37,394.382 293.35,394.415 293.326,394.448C293.31,394.47 293.291,394.487 293.279,394.511C293.248,394.567 293.229,394.63 293.232,394.696C293.244,394.954 293.508,395.229 293.722,395.491C293.828,395.622 293.923,395.749 293.971,395.868C294.118,396.235 293.797,396.579 293.617,396.874C293.454,397.136 293.294,397.397 293.111,397.645C293.057,397.716 292.998,397.784 292.938,397.852C292.934,397.856 292.93,397.862 292.926,397.864C292.924,397.868 292.922,397.87 292.92,397.872C292.886,397.909 292.854,397.946 292.821,397.985C292.802,398.009 292.782,398.032 292.762,398.057C292.749,398.075 292.735,398.095 292.722,398.112C292.718,398.118 292.714,398.124 292.709,398.13C292.666,398.19 292.628,398.257 292.598,398.329C292.351,398.928 292.72,399.53 292.848,400.108C292.854,400.132 292.858,400.157 292.863,400.18C292.874,400.245 292.87,400.309 292.873,400.374C292.875,400.425 292.883,400.473 292.881,400.524C292.876,400.604 292.862,400.682 292.848,400.762C292.84,400.805 292.84,400.846 292.829,400.887C292.828,400.893 292.825,400.899 292.823,400.905C292.805,400.975 292.776,401.042 292.751,401.11C292.732,401.161 292.718,401.214 292.695,401.264C292.642,401.38 292.581,401.491 292.511,401.595C292.152,402.132 291.594,402.413 290.984,402.555C290.83,402.712 290.656,402.858 290.463,402.995C290.642,403.184 290.833,403.362 291.029,403.534C291.223,403.7 291.423,403.858 291.614,404.009C291.808,404.157 291.995,404.296 292.165,404.425C292.337,404.552 292.493,404.669 292.625,404.772C292.723,404.852 292.831,404.964 292.94,405.087C293.05,405.21 293.163,405.346 293.273,405.479C293.372,405.596 293.467,405.708 293.561,405.807C293.573,405.821 293.587,405.835 293.601,405.85C293.644,405.895 293.685,405.934 293.726,405.971C293.853,405.737 293.958,405.503 294.038,405.274C294.088,405.128 294.127,404.985 294.16,404.846C294.184,404.741 294.206,404.637 294.221,404.538C294.231,404.477 294.23,404.425 294.236,404.368C294.246,404.268 294.259,404.163 294.26,404.071C294.26,404.028 294.26,403.985 294.258,403.944Z" style="fill:rgb(35,31,32);fill-rule:nonzero;"/>
        <path d="M320.517,398.916C321.365,398.916 321.922,398.395 321.922,397.519C321.922,396.653 321.365,396.151 320.526,396.151L319.121,396.151L319.121,398.916L320.517,398.916ZM318.482,396.151L317.889,396.151L317.889,395.585L320.599,395.585C321.739,395.585 322.579,396.333 322.579,397.519C322.579,398.715 321.739,399.481 320.599,399.481L319.121,399.481L319.121,402L318.482,402L318.482,396.151Z" style="fill:rgb(35,31,32);fill-rule:nonzero;"/>
        <path d="M326.716,399.235C326.68,398.286 326.096,397.821 325.42,397.821C324.663,397.821 323.997,398.313 323.842,399.235L326.716,399.235ZM325.43,397.301C326.698,397.301 327.355,398.277 327.355,399.417C327.355,399.527 327.337,399.727 327.337,399.727L323.814,399.727C323.833,400.887 324.645,401.553 325.594,401.553C326.434,401.553 326.972,400.987 326.972,400.987L327.273,401.452C327.273,401.452 326.607,402.109 325.566,402.109C324.207,402.109 323.166,401.124 323.166,399.71C323.166,398.204 324.198,397.301 325.43,397.301Z" style="fill:rgb(35,31,32);fill-rule:nonzero;"/>
        <path d="M328.682,398.149C328.682,398.021 328.608,397.948 328.481,397.948L328.098,397.948L328.098,397.41L328.736,397.41C329.12,397.41 329.293,397.565 329.293,397.93L329.293,398.241C329.293,398.432 329.275,398.587 329.275,398.587L329.293,398.587C329.512,397.893 330.023,397.364 330.744,397.364C330.872,397.364 330.99,397.391 330.99,397.391L330.99,398.003C330.99,398.003 330.88,397.985 330.762,397.985C330.114,397.985 329.63,398.496 329.43,399.171C329.338,399.464 329.302,399.773 329.302,400.065L329.302,402L328.682,402L328.682,398.149Z" style="fill:rgb(35,31,32);fill-rule:nonzero;"/>
        <path d="M332.275,398.149C332.275,398.021 332.202,397.948 332.075,397.948L331.691,397.948L331.691,397.41L332.33,397.41C332.713,397.41 332.887,397.575 332.887,397.921L332.887,398.131C332.887,398.313 332.869,398.46 332.869,398.46L332.887,398.46C333.051,398.04 333.635,397.301 334.711,397.301C335.852,397.301 336.254,397.948 336.254,399.08L336.254,401.261C336.254,401.397 336.327,401.462 336.455,401.462L336.838,401.462L336.838,402L336.19,402C335.797,402 335.633,401.836 335.633,401.443L335.633,399.244C335.633,398.523 335.524,397.885 334.639,397.885C333.854,397.885 333.179,398.423 332.969,399.18C332.914,399.372 332.896,399.582 332.896,399.801L332.896,402L332.275,402L332.275,398.149Z" style="fill:rgb(35,31,32);fill-rule:nonzero;"/>
        <path d="M339.218,401.58C340.094,401.58 340.624,400.668 340.624,399.874L340.624,399.664L340.359,399.664C339.638,399.664 338.196,399.682 338.196,400.714C338.196,401.141 338.534,401.58 339.218,401.58ZM340.368,399.171L340.624,399.171L340.624,399.116C340.624,398.159 340.276,397.821 339.437,397.821C339.209,397.821 338.543,397.885 338.543,398.221L338.543,398.514L337.95,398.514L337.95,398.076C337.95,397.437 339.045,397.301 339.446,397.301C340.897,397.301 341.244,398.076 341.244,399.061L341.244,401.261C341.244,401.397 341.317,401.462 341.444,401.462L341.828,401.462L341.828,402L341.198,402C340.806,402 340.651,401.827 340.651,401.452C340.651,401.252 340.66,401.114 340.66,401.114L340.642,401.114C340.651,401.114 340.268,402.109 339.118,402.109C338.351,402.109 337.557,401.663 337.557,400.75C337.557,399.225 339.574,399.171 340.368,399.171Z" style="fill:rgb(35,31,32);fill-rule:nonzero;"/>
        <path d="M342.883,398.149C342.883,398.021 342.81,397.948 342.683,397.948L342.299,397.948L342.299,397.41L342.938,397.41C343.321,397.41 343.495,397.575 343.495,397.921L343.495,398.131C343.495,398.313 343.476,398.46 343.476,398.46L343.495,398.46C343.723,397.839 344.443,397.301 345.155,397.301C346.004,397.301 346.442,397.693 346.579,398.45L346.597,398.45C346.843,397.83 347.509,397.301 348.285,397.301C349.398,397.301 349.809,397.948 349.809,399.08L349.809,401.261C349.809,401.397 349.882,401.462 350.01,401.462L350.393,401.462L350.393,402L349.745,402C349.353,402 349.188,401.836 349.188,401.443L349.188,399.235C349.188,398.487 349.033,397.866 348.194,397.866C347.5,397.866 346.925,398.487 346.743,399.162C346.679,399.362 346.661,399.582 346.661,399.828L346.661,402L346.04,402L346.04,399.235C346.04,398.542 345.94,397.866 345.073,397.866C344.325,397.866 343.768,398.514 343.577,399.217C343.522,399.409 343.504,399.618 343.504,399.828L343.504,402L342.883,402L342.883,398.149Z" style="fill:rgb(35,31,32);fill-rule:nonzero;"/>
        <path d="M353.485,401.561C354.297,401.561 354.963,400.878 354.963,399.71C354.963,398.587 354.361,397.866 353.512,397.866C352.746,397.866 352.025,398.414 352.025,399.719C352.025,400.64 352.499,401.561 353.485,401.561ZM351.423,396.324C351.423,396.196 351.35,396.124 351.222,396.124L350.839,396.124L350.839,395.585L351.487,395.585C351.879,395.585 352.043,395.749 352.043,396.141L352.043,397.803C352.043,398.012 352.025,398.177 352.025,398.177L352.043,398.177C352.043,398.177 352.426,397.301 353.604,397.301C354.835,397.301 355.602,398.286 355.602,399.71C355.602,401.161 354.735,402.109 353.531,402.109C352.436,402.109 352.025,401.224 352.025,401.224L352.006,401.224C352.006,401.224 352.025,401.38 352.025,401.598L352.025,402L351.423,402L351.423,396.324Z" style="fill:rgb(35,31,32);fill-rule:nonzero;"/>
        <path d="M356.86,398.149C356.86,398.021 356.787,397.948 356.659,397.948L356.276,397.948L356.276,397.41L356.923,397.41C357.316,397.41 357.48,397.575 357.48,397.948L357.48,400.166C357.48,400.887 357.598,401.525 358.484,401.525C359.524,401.525 360.172,400.604 360.172,399.609L360.172,397.41L360.792,397.41L360.792,401.261C360.792,401.397 360.866,401.462 360.993,401.462L361.376,401.462L361.376,402L360.747,402C360.364,402 360.19,401.836 360.19,401.489L360.19,401.279C360.19,401.096 360.208,400.95 360.208,400.95L360.19,400.95C360.008,401.397 359.405,402.109 358.402,402.109C357.316,402.109 356.86,401.525 356.86,400.33L356.86,398.149Z" style="fill:rgb(35,31,32);fill-rule:nonzero;"/>
        <path d="M364.468,397.301C364.989,397.301 366.102,397.519 366.102,398.277L366.102,398.687L365.518,398.687L365.518,398.423C365.518,398.04 364.852,397.857 364.468,397.857C363.483,397.857 362.689,398.596 362.689,399.71C362.689,400.841 363.519,401.544 364.487,401.544C365.426,401.544 365.964,400.895 365.964,400.895L366.256,401.361C366.256,401.361 365.636,402.109 364.459,402.109C363.09,402.109 362.05,401.134 362.05,399.71C362.05,398.304 363.1,397.301 364.468,397.301Z" style="fill:rgb(35,31,32);fill-rule:nonzero;"/>
        <path d="M369.401,401.553C370.377,401.553 371.18,400.75 371.18,399.682C371.18,398.641 370.377,397.866 369.401,397.866C368.416,397.866 367.614,398.641 367.614,399.682C367.614,400.75 368.416,401.553 369.401,401.553ZM369.393,397.301C370.734,397.301 371.82,398.323 371.82,399.682C371.82,401.069 370.734,402.109 369.401,402.109C368.06,402.109 366.974,401.069 366.974,399.682C366.974,398.323 368.06,397.301 369.393,397.301Z" style="fill:rgb(35,31,32);fill-rule:nonzero;"/>
    </g>
</svg>
