<?xml version="1.0" encoding="UTF-8" standalone="no"?>
<!DOCTYPE svg PUBLIC "-//W3C//DTD SVG 1.1//EN" "http://www.w3.org/Graphics/SVG/1.1/DTD/svg11.dtd">
<svg width="100%" height="100%" viewBox="0 0 173 39" version="1.1" xmlns="http://www.w3.org/2000/svg" xmlns:xlink="http://www.w3.org/1999/xlink" xml:space="preserve" xmlns:serif="http://www.serif.com/" style="fill-rule:evenodd;clip-rule:evenodd;stroke-linejoin:round;stroke-miterlimit:2;">
    <g transform="matrix(1,0,0,1,-27.07676,-79.184998)">
        <path d="M64.79,94.603L63.8,94.603L64.268,92.91L70.338,92.91C71.053,92.91 71.373,93.23 71.373,93.947L71.373,95.593L69.56,95.593L69.56,94.938C69.56,94.724 69.438,94.603 69.224,94.603L66.786,94.603L66.786,97.437L70.292,97.437L70.292,99.128L66.786,99.128L66.786,101.702C66.786,101.915 66.908,102.037 67.122,102.037L69.622,102.037C69.834,102.037 69.957,101.915 69.957,101.702L69.957,101.047L71.769,101.047L71.769,102.694C71.769,103.424 71.45,103.728 70.734,103.728L65.826,103.728C65.095,103.728 64.79,103.424 64.79,102.694L64.79,94.603Z" style="fill:rgb(0,75,142);fill-rule:nonzero;"/>
        <path d="M73.758,101.261C73.758,101.261 74.75,102.404 76.074,102.404C76.669,102.404 77.125,102.159 77.125,101.641C77.125,100.545 73.027,100.56 73.027,98.046C73.027,96.492 74.428,95.775 76.044,95.775C77.095,95.775 78.771,96.126 78.771,97.391L78.771,98.199L77.064,98.199L77.064,97.817C77.064,97.451 76.516,97.269 76.09,97.269C75.405,97.269 74.931,97.512 74.931,97.971C74.931,99.189 79.061,98.945 79.061,101.534C79.061,102.997 77.766,103.912 76.074,103.912C73.941,103.912 72.845,102.525 72.845,102.525L73.758,101.261Z" style="fill:rgb(0,75,142);fill-rule:nonzero;"/>
        <path d="M84.563,95.775C85.569,95.775 87.383,96.186 87.383,97.527L87.383,98.442L85.675,98.442L85.675,98.016C85.675,97.588 85.036,97.406 84.563,97.406C83.222,97.406 82.262,98.426 82.262,99.829C82.262,101.412 83.437,102.22 84.686,102.22C86.013,102.22 86.987,101.17 86.987,101.17L87.793,102.511C87.793,102.511 86.636,103.912 84.517,103.912C81.957,103.912 80.313,102.098 80.313,99.843C80.313,97.649 81.896,95.775 84.563,95.775Z" style="fill:rgb(0,75,142);fill-rule:nonzero;"/>
        <path d="M92.979,102.266C94.243,102.266 95.294,101.291 95.294,99.843C95.294,98.411 94.243,97.421 92.979,97.421C91.729,97.421 90.677,98.411 90.677,99.843C90.677,101.291 91.729,102.266 92.979,102.266ZM92.979,95.775C95.355,95.775 97.246,97.466 97.246,99.843C97.246,102.237 95.355,103.912 92.979,103.912C90.617,103.912 88.727,102.237 88.727,99.843C88.727,97.466 90.617,95.775 92.979,95.775Z" style="fill:rgb(0,75,142);fill-rule:nonzero;"/>
        <path d="M99.079,97.497L98.073,97.497L98.073,95.959L99.126,95.959L99.126,93.841L101.016,93.841L101.016,95.959L102.782,95.959L102.782,97.497L101.016,97.497L101.016,100.636C101.016,101.915 102.02,102.098 102.555,102.098C102.768,102.098 102.905,102.068 102.905,102.068L102.905,103.759C102.905,103.759 102.661,103.805 102.311,103.805C101.229,103.805 99.079,103.486 99.079,100.88L99.079,97.497Z" style="fill:rgb(0,75,142);fill-rule:nonzero;"/>
        <path d="M109.279,98.838C109.249,97.909 108.609,97.269 107.815,97.269C106.827,97.269 106.125,97.862 105.911,98.838L109.279,98.838ZM107.815,95.775C110.043,95.775 111.261,97.406 111.261,99.463C111.261,99.692 111.215,100.178 111.215,100.178L105.852,100.178C106.003,101.55 107.008,102.266 108.182,102.266C109.432,102.266 110.361,101.398 110.361,101.398L111.17,102.738C111.17,102.738 109.98,103.912 108.045,103.912C105.47,103.912 103.87,102.053 103.87,99.843C103.87,97.451 105.485,95.775 107.815,95.775Z" style="fill:rgb(0,75,142);fill-rule:nonzero;"/>
        <path d="M113.451,92.91L115.126,92.91L115.126,94.693L113.451,94.693L113.451,92.91ZM113.362,97.939C113.362,97.711 113.238,97.604 113.025,97.604L112.416,97.604L112.416,95.959L114.259,95.959C114.975,95.959 115.281,96.279 115.281,96.995L115.281,101.763C115.281,101.976 115.402,102.098 115.615,102.098L116.224,102.098L116.224,103.728L114.38,103.728C113.665,103.728 113.362,103.424 113.362,102.694L113.362,97.939Z" style="fill:rgb(0,75,142);fill-rule:nonzero;"/>
        <path d="M118.027,97.939C118.027,97.711 117.904,97.604 117.692,97.604L117.083,97.604L117.083,95.959L118.85,95.959C119.535,95.959 119.886,96.248 119.886,96.902L119.886,97.361C119.886,97.649 119.856,97.848 119.856,97.848L119.886,97.848C120.236,96.737 121.166,95.851 122.355,95.851C122.523,95.851 122.704,95.883 122.704,95.883L122.704,97.786C122.704,97.786 122.506,97.756 122.232,97.756C121.41,97.756 120.465,98.229 120.114,99.386C120.008,99.768 119.946,100.195 119.946,100.65L119.946,103.728L118.027,103.728L118.027,97.939Z" style="fill:rgb(0,75,142);fill-rule:nonzero;"/>
        <path d="M127.879,102.266C129.144,102.266 130.195,101.291 130.195,99.843C130.195,98.411 129.144,97.421 127.879,97.421C126.629,97.421 125.578,98.411 125.578,99.843C125.578,101.291 126.629,102.266 127.879,102.266ZM127.879,95.775C130.255,95.775 132.146,97.466 132.146,99.843C132.146,102.237 130.255,103.912 127.879,103.912C125.518,103.912 123.627,102.237 123.627,99.843C123.627,97.466 125.518,95.775 127.879,95.775Z" style="fill:rgb(0,75,142);fill-rule:nonzero;"/>
        <path d="M134.12,101.261C134.12,101.261 135.111,102.404 136.437,102.404C137.031,102.404 137.488,102.159 137.488,101.641C137.488,100.545 133.389,100.56 133.389,98.046C133.389,96.492 134.79,95.775 136.405,95.775C137.457,95.775 139.133,96.126 139.133,97.391L139.133,98.199L137.427,98.199L137.427,97.817C137.427,97.451 136.879,97.269 136.451,97.269C135.766,97.269 135.293,97.512 135.293,97.971C135.293,99.189 139.423,98.945 139.423,101.534C139.423,102.997 138.128,103.912 136.437,103.912C134.303,103.912 133.206,102.525 133.206,102.525L134.12,101.261Z" style="fill:rgb(0,75,142);fill-rule:nonzero;"/>
        <path d="M146.762,99.891C146.762,98.336 145.971,96.811 144.324,96.811C142.968,96.811 141.855,97.955 141.855,99.891C141.855,101.779 142.846,102.982 144.279,102.982C145.558,102.982 146.762,102.068 146.762,99.891ZM144.231,95.883C146.092,95.883 146.732,97.314 146.732,97.314L146.762,97.314C146.762,97.314 146.732,97.056 146.732,96.737L146.732,94.253C146.732,94.04 146.61,93.915 146.396,93.915L145.756,93.915L145.756,93.016L146.838,93.016C147.494,93.016 147.768,93.29 147.768,93.947L147.768,102.494C147.768,102.723 147.89,102.83 148.103,102.83L148.743,102.83L148.743,103.728L147.676,103.728C147.036,103.728 146.762,103.44 146.762,102.876C146.762,102.587 146.792,102.388 146.792,102.388L146.762,102.388C146.762,102.388 146.138,103.912 144.126,103.912C142.069,103.912 140.789,102.266 140.789,99.891C140.789,97.466 142.221,95.883 144.231,95.883Z" style="fill:rgb(0,75,142);fill-rule:nonzero;"/>
        <path d="M153.934,102.982C155.564,102.982 156.904,101.641 156.904,99.859C156.904,98.121 155.564,96.826 153.934,96.826C152.288,96.826 150.946,98.121 150.946,99.859C150.946,101.641 152.288,102.982 153.934,102.982ZM153.918,95.883C156.159,95.883 157.972,97.588 157.972,99.859C157.972,102.175 156.159,103.912 153.934,103.912C151.693,103.912 149.879,102.175 149.879,99.859C149.879,97.588 151.693,95.883 153.918,95.883Z" style="fill:rgb(0,75,142);fill-rule:nonzero;"/>
        <path d="M162.47,102.037L164.023,102.037C164.999,102.037 165.548,101.383 165.548,100.468C165.548,99.57 164.984,98.915 164.023,98.915L162.134,98.915L162.134,101.702C162.134,101.915 162.257,102.037 162.47,102.037ZM163.841,97.33C164.678,97.33 165.151,96.721 165.151,95.944C165.151,95.165 164.695,94.603 163.811,94.603L162.134,94.603L162.134,97.33L163.841,97.33ZM160.138,94.603L159.149,94.603L159.618,92.91L163.826,92.91C165.777,92.91 167.179,93.915 167.179,95.7C167.179,96.902 166.523,97.681 165.868,98.016L165.868,98.046C167.041,98.397 167.606,99.494 167.606,100.59C167.606,102.754 165.882,103.728 163.871,103.728L161.173,103.728C160.458,103.728 160.138,103.424 160.138,102.694L160.138,94.603Z" style="fill:rgb(0,75,142);fill-rule:nonzero;"/>
        <path d="M169.712,97.939C169.712,97.711 169.59,97.604 169.377,97.604L168.769,97.604L168.769,95.959L170.536,95.959C171.221,95.959 171.572,96.248 171.572,96.902L171.572,97.361C171.572,97.649 171.541,97.848 171.541,97.848L171.572,97.848C171.922,96.737 172.852,95.851 174.04,95.851C174.208,95.851 174.392,95.883 174.392,95.883L174.392,97.786C174.392,97.786 174.191,97.756 173.917,97.756C173.096,97.756 172.151,98.229 171.8,99.386C171.693,99.768 171.632,100.195 171.632,100.65L171.632,103.728L169.712,103.728L169.712,97.939Z" style="fill:rgb(0,75,142);fill-rule:nonzero;"/>
        <path d="M178.367,102.404C179.403,102.404 180.133,101.307 180.133,100.362L180.133,100.178L179.799,100.178C178.792,100.178 177.193,100.317 177.193,101.398C177.193,101.915 177.574,102.404 178.367,102.404ZM179.86,98.854L180.103,98.854L180.103,98.793C180.103,97.681 179.661,97.269 178.671,97.269C178.321,97.269 177.635,97.361 177.635,97.786L177.635,98.199L175.837,98.199L175.837,97.376C175.837,95.928 177.879,95.775 178.686,95.775C181.278,95.775 182.039,97.131 182.039,98.869L182.039,101.763C182.039,101.976 182.161,102.098 182.374,102.098L182.984,102.098L182.984,103.728L181.247,103.728C180.53,103.728 180.256,103.333 180.256,102.876C180.256,102.678 180.271,102.54 180.271,102.54L180.241,102.54C180.241,102.54 179.646,103.912 177.895,103.912C176.508,103.912 175.242,103.043 175.242,101.489C175.242,99.051 178.594,98.854 179.86,98.854Z" style="fill:rgb(0,75,142);fill-rule:nonzero;"/>
        <path d="M184.977,101.261C184.977,101.261 185.966,102.404 187.291,102.404C187.885,102.404 188.343,102.159 188.343,101.641C188.343,100.545 184.244,100.56 184.244,98.046C184.244,96.492 185.646,95.775 187.261,95.775C188.313,95.775 189.989,96.126 189.989,97.391L189.989,98.199L188.283,98.199L188.283,97.817C188.283,97.451 187.734,97.269 187.308,97.269C186.622,97.269 186.149,97.512 186.149,97.971C186.149,99.189 190.278,98.945 190.278,101.534C190.278,102.997 188.983,103.912 187.291,103.912C185.159,103.912 184.06,102.525 184.06,102.525L184.977,101.261Z" style="fill:rgb(0,75,142);fill-rule:nonzero;"/>
        <path d="M192.433,92.91L194.108,92.91L194.108,94.693L192.433,94.693L192.433,92.91ZM192.34,97.939C192.34,97.711 192.219,97.604 192.006,97.604L191.396,97.604L191.396,95.959L193.24,95.959C193.956,95.959 194.26,96.279 194.26,96.995L194.26,101.763C194.26,101.976 194.382,102.098 194.595,102.098L195.206,102.098L195.206,103.728L193.361,103.728C192.645,103.728 192.34,103.424 192.34,102.694L192.34,97.939Z" style="fill:rgb(0,75,142);fill-rule:nonzero;"/>
        <path d="M196.839,94.891C196.839,94.663 196.716,94.556 196.503,94.556L195.893,94.556L195.893,92.91L197.736,92.91C198.454,92.91 198.774,93.23 198.774,93.947L198.774,101.763C198.774,101.976 198.895,102.098 199.109,102.098L199.702,102.098L199.702,103.728L197.874,103.728C197.144,103.728 196.839,103.424 196.839,102.694L196.839,94.891Z" style="fill:rgb(0,75,142);fill-rule:nonzero;"/>
        <path d="M42.843,111.805C42.865,111.729 42.896,111.655 42.93,111.581C42.943,111.553 42.954,111.524 42.967,111.496C42.988,111.459 43.012,111.422 43.034,111.385C43.178,111.138 43.359,110.912 43.546,110.697C43.86,110.331 44.122,109.954 44.392,109.557C44.4,109.545 44.408,109.532 44.415,109.521C44.523,109.361 44.579,109.225 44.597,109.101C44.599,109.085 44.6,109.073 44.602,109.057C44.602,109.048 44.599,109.039 44.6,109.029C44.602,108.943 44.586,108.864 44.557,108.785C44.556,108.78 44.554,108.771 44.552,108.763C44.508,108.658 44.441,108.556 44.368,108.449C44.353,108.428 44.337,108.403 44.322,108.382C44.169,108.17 44.01,107.966 43.849,107.76C43.833,107.743 43.817,107.729 43.805,107.711C43.75,107.64 43.701,107.569 43.675,107.496C43.653,107.441 43.645,107.386 43.652,107.33C43.656,107.311 43.66,107.292 43.667,107.273C43.704,107.167 43.78,107.074 43.872,106.982C43.894,106.96 43.922,106.94 43.944,106.921C44.013,106.859 44.082,106.799 44.154,106.742C44.166,106.732 44.176,106.723 44.188,106.714C44.299,106.626 44.411,106.532 44.504,106.43C44.529,106.404 44.549,106.374 44.57,106.344C44.623,106.274 44.673,106.2 44.704,106.113C44.706,106.105 44.711,106.1 44.714,106.093C44.747,105.99 44.763,105.897 44.772,105.807C44.819,105.24 44.459,104.789 44.162,104.304C44.135,104.264 44.107,104.225 44.084,104.184C44.033,104.103 43.984,104.02 43.938,103.932C43.896,103.849 43.871,103.699 43.876,103.51C43.881,103.404 43.899,103.282 43.929,103.152C43.933,103.133 43.941,103.115 43.945,103.097C43.966,103.009 43.988,102.923 44.023,102.83C44.04,102.786 44.066,102.742 44.086,102.699C44.117,102.626 44.149,102.552 44.191,102.477C44.224,102.418 44.266,102.361 44.303,102.302C44.335,102.252 44.362,102.202 44.396,102.154C44.425,102.114 44.454,102.076 44.485,102.038C44.489,102.032 44.492,102.028 44.497,102.02C44.721,101.745 45.018,101.469 45.407,101.218C45.617,101.082 45.824,100.905 46.012,100.702C46.2,100.499 46.37,100.272 46.509,100.03C46.646,99.791 46.752,99.54 46.814,99.29C46.836,99.197 46.854,99.102 46.863,99.011C46.879,98.858 46.875,98.708 46.849,98.562C46.826,98.437 46.77,98.323 46.691,98.221C46.613,98.116 46.514,98.022 46.405,97.933C46.296,97.845 46.179,97.762 46.064,97.683C45.95,97.604 45.84,97.527 45.745,97.45C45.738,97.444 45.731,97.44 45.725,97.434C45.018,96.928 44.307,96.379 43.682,95.762C43.459,95.55 43.241,95.32 43.031,95.068C43.006,95.037 42.983,95.004 42.957,94.973C42.277,94.154 41.47,93.157 41.206,92.115C41.196,92.08 41.18,92.047 41.172,92.012C41.04,91.393 41.091,90.716 41.328,90.129C41.335,90.111 41.34,90.094 41.346,90.081C41.413,89.923 41.467,89.766 41.513,89.604C41.522,89.571 41.529,89.538 41.537,89.506C41.572,89.375 41.6,89.245 41.62,89.113C41.629,89.065 41.638,89.018 41.645,88.969C41.65,88.93 41.655,88.891 41.659,88.851C41.664,88.812 41.666,88.774 41.668,88.734C41.69,88.489 41.696,88.241 41.685,87.992C41.685,87.976 41.685,87.962 41.683,87.946C41.676,87.779 41.663,87.611 41.643,87.445C41.642,87.442 41.642,87.437 41.642,87.433C41.62,87.255 41.594,87.077 41.562,86.899C41.497,86.541 41.41,86.187 41.315,85.841C41.209,85.456 41.103,85.068 40.992,84.675C40.881,84.279 40.768,83.881 40.649,83.481C40.53,83.077 40.406,82.674 40.276,82.267C40.146,81.86 40.007,81.452 39.862,81.046C39.829,81.085 39.798,81.124 39.766,81.163C39.578,81.387 39.393,81.613 39.218,81.839C39.009,82.102 38.813,82.366 38.628,82.627C38.615,82.645 38.602,82.664 38.59,82.682C39.153,83.479 39.571,84.382 39.842,85.336C40.108,86.278 40.243,87.258 40.284,88.237C40.306,88.787 40.264,89.343 40.124,89.875C39.997,90.352 39.789,90.792 39.7,91.281C39.419,92.846 40.597,94.231 41.498,95.404C42.468,96.668 43.801,97.521 45,98.542C45.685,99.116 45.495,99.993 45.106,100.695C45.105,100.698 45.105,100.699 45.104,100.699C45.101,100.709 45.096,100.716 45.082,100.74C45.061,100.777 45.039,100.814 45.016,100.85C44.604,101.523 43.978,101.867 43.431,102.401C43.422,102.41 43.414,102.422 43.405,102.429C43.274,102.561 43.152,102.702 43.043,102.85C43.023,102.877 43.005,102.903 42.987,102.93C42.896,103.059 42.809,103.195 42.744,103.335C42.718,103.4 42.686,103.46 42.66,103.526C42.653,103.542 42.645,103.559 42.639,103.577C42.625,103.613 42.614,103.65 42.602,103.687C42.58,103.752 42.562,103.822 42.548,103.888C42.537,103.928 42.529,103.969 42.522,104.01C42.498,104.157 42.483,104.306 42.49,104.457C42.527,105.189 43.323,105.664 43.395,106.417C43.396,106.435 43.391,106.457 43.391,106.478C43.395,106.572 43.391,106.664 43.375,106.757C43.371,106.773 43.376,106.786 43.371,106.802C43.365,106.836 43.349,106.865 43.339,106.899C43.329,106.929 43.327,106.962 43.315,106.991C43.309,107.005 43.3,107.019 43.292,107.033C43.272,107.08 43.245,107.124 43.219,107.167C43.195,107.208 43.173,107.248 43.144,107.287C43.138,107.295 43.133,107.305 43.127,107.313C43.112,107.333 43.094,107.351 43.078,107.37C43.046,107.404 43.012,107.439 42.979,107.47C42.975,107.474 42.971,107.48 42.967,107.484C42.873,107.571 42.769,107.645 42.669,107.725C42.591,107.789 42.521,107.865 42.453,107.942C41.93,108.602 42.907,109.085 43.173,109.76C43.221,109.881 43.229,110.011 43.204,110.14C43.192,110.202 43.173,110.264 43.148,110.324C42.76,111.273 41.843,111.857 41.438,112.785C41.388,112.901 41.357,113.015 41.339,113.13C41.333,113.16 41.324,113.193 41.32,113.223C41.299,113.351 41.304,113.479 41.317,113.605C41.326,113.676 41.344,113.741 41.36,113.811C41.439,114.162 41.601,114.509 41.725,114.832C41.771,114.95 41.8,115.106 41.809,115.292C41.811,115.332 41.812,115.376 41.812,115.42C41.811,115.513 41.797,115.618 41.787,115.719C41.781,115.79 41.782,115.852 41.77,115.926C41.758,116.002 41.742,116.079 41.727,116.158C41.69,116.322 41.645,116.492 41.584,116.668C41.504,116.898 41.399,117.136 41.271,117.374C41.273,117.376 41.277,117.381 41.282,117.383C41.315,117.335 41.349,117.289 41.381,117.243C41.435,117.174 41.486,117.103 41.537,117.037C41.588,116.97 41.638,116.909 41.685,116.85C41.734,116.794 41.781,116.74 41.824,116.695C41.978,116.531 42.149,116.358 42.331,116.174C42.511,115.988 42.702,115.793 42.896,115.587C42.91,115.573 42.922,115.557 42.935,115.544C42.941,115.487 43.08,115.095 43.139,114.824C43.145,114.798 43.151,114.771 43.155,114.745C43.176,114.629 43.19,114.517 43.198,114.412C43.207,114.305 43.211,114.205 43.209,114.112C43.207,113.926 43.185,113.767 43.144,113.647C43.071,113.431 42.995,113.219 42.932,113.012C42.868,112.805 42.817,112.604 42.795,112.406C42.779,112.282 42.776,112.162 42.79,112.044C42.792,112.024 42.8,112.005 42.803,111.983C42.811,111.932 42.818,111.881 42.833,111.832C42.836,111.824 42.84,111.816 42.843,111.805Z" style="fill:rgb(194,205,35);fill-rule:nonzero;"/>
        <path d="M57.097,98.905C56.683,97.62 55.88,96.463 54.844,95.622C53.882,94.842 52.717,94.367 51.505,94.201C50.05,94.002 48.611,94.341 47.323,95.039C47.018,95.202 46.716,95.384 46.415,95.587C46.529,95.434 46.624,95.29 46.703,95.155C46.863,94.884 46.965,94.65 47.038,94.477C47.218,94.065 47.364,93.622 47.481,93.172C47.598,92.721 47.687,92.265 47.742,91.832C47.798,91.397 47.824,90.986 47.819,90.626C47.813,90.211 47.778,89.785 47.714,89.361C47.651,88.933 47.559,88.504 47.438,88.086C47.315,87.663 47.165,87.25 46.983,86.858C46.803,86.463 46.591,86.087 46.35,85.744C46.012,85.259 45.656,84.739 45.28,84.202C44.901,83.66 44.5,83.102 44.075,82.54C43.645,81.975 43.193,81.41 42.713,80.863C42.227,80.308 41.713,79.773 41.168,79.277C41.153,79.262 41.135,79.25 41.116,79.238C41.097,79.229 41.077,79.218 41.055,79.211C41.033,79.203 41.01,79.197 40.988,79.193C40.965,79.189 40.94,79.185 40.918,79.185C40.898,79.185 40.879,79.187 40.859,79.189C40.84,79.191 40.822,79.195 40.803,79.2C40.785,79.205 40.768,79.212 40.752,79.219C40.734,79.229 40.719,79.238 40.704,79.25C40.408,79.479 40.107,79.726 39.809,79.987C39.509,80.246 39.209,80.522 38.915,80.808C38.618,81.093 38.328,81.385 38.043,81.689C37.995,81.739 37.947,81.79 37.901,81.841C38.151,82.105 38.381,82.385 38.59,82.68L38.59,82.681C38.604,82.662 38.616,82.645 38.63,82.624C38.817,82.363 39.012,82.099 39.22,81.835C39.394,81.61 39.578,81.385 39.766,81.163C39.798,81.124 39.829,81.085 39.862,81.046L39.862,81.043C40.011,81.449 40.147,81.857 40.278,82.264C40.409,82.67 40.532,83.074 40.652,83.477C40.984,84.603 41.354,85.74 41.563,86.895C41.596,87.075 41.62,87.254 41.642,87.433C41.642,87.437 41.642,87.442 41.643,87.445C41.663,87.611 41.677,87.779 41.683,87.946C41.685,87.962 41.685,87.976 41.685,87.992C41.696,88.241 41.69,88.488 41.668,88.734C41.666,88.774 41.664,88.812 41.659,88.851C41.655,88.891 41.65,88.93 41.645,88.969C41.638,89.018 41.629,89.065 41.62,89.113C41.6,89.245 41.571,89.375 41.537,89.506C41.529,89.538 41.522,89.571 41.513,89.604C41.467,89.766 41.414,89.923 41.349,90.079C41.343,90.094 41.336,90.111 41.331,90.126C41.094,90.712 41.041,91.389 41.175,92.008C41.183,92.044 41.196,92.078 41.206,92.115C41.47,93.157 42.277,94.154 42.957,94.973C42.983,95.004 43.009,95.036 43.034,95.066C43.234,95.307 43.453,95.538 43.682,95.762C44.307,96.379 45.018,96.928 45.725,97.434C45.84,97.515 45.953,97.602 46.066,97.681C46.181,97.759 46.299,97.842 46.408,97.931C46.517,98.018 46.616,98.113 46.693,98.217C46.772,98.32 46.828,98.433 46.852,98.558C46.877,98.704 46.881,98.854 46.865,99.008C46.855,99.1 46.838,99.195 46.815,99.288C46.755,99.54 46.648,99.791 46.509,100.03C46.372,100.272 46.202,100.499 46.015,100.702C45.826,100.905 45.62,101.082 45.409,101.218C45.019,101.469 44.722,101.745 44.498,102.019C44.493,102.025 44.489,102.032 44.485,102.038C44.454,102.076 44.425,102.114 44.396,102.154C44.362,102.202 44.335,102.252 44.303,102.302C44.266,102.36 44.224,102.418 44.191,102.477C44.149,102.552 44.117,102.626 44.086,102.699C44.066,102.742 44.042,102.786 44.025,102.83C43.992,102.918 43.966,103.008 43.945,103.097C43.941,103.115 43.933,103.133 43.929,103.152C43.861,103.471 43.88,103.788 44.042,104.099C44.055,104.126 44.071,104.155 44.086,104.181C44.111,104.223 44.135,104.263 44.162,104.304C44.459,104.789 44.819,105.24 44.772,105.807C44.764,105.898 44.747,105.993 44.716,106.093C44.714,106.1 44.706,106.105 44.704,106.113C44.673,106.2 44.623,106.274 44.57,106.344C44.457,106.497 44.311,106.622 44.154,106.742C44.082,106.799 44.013,106.859 43.944,106.921C43.872,106.986 43.801,107.052 43.745,107.132C43.713,107.177 43.686,107.224 43.669,107.272C43.662,107.291 43.658,107.309 43.656,107.326C43.647,107.382 43.656,107.438 43.677,107.49C43.704,107.565 43.751,107.636 43.806,107.707C43.821,107.723 43.834,107.742 43.849,107.76C44.01,107.966 44.169,108.17 44.322,108.382C44.337,108.403 44.355,108.425 44.37,108.446C44.444,108.553 44.511,108.656 44.554,108.76C44.557,108.768 44.555,108.778 44.557,108.785C44.586,108.864 44.602,108.943 44.6,109.029C44.599,109.038 44.604,109.046 44.604,109.053C44.602,109.069 44.602,109.085 44.599,109.101C44.58,109.225 44.525,109.361 44.419,109.521C44.409,109.532 44.4,109.543 44.392,109.557C44.122,109.954 43.86,110.331 43.546,110.697C43.359,110.912 43.178,111.138 43.034,111.385C43.012,111.423 42.988,111.458 42.967,111.496C42.954,111.524 42.943,111.553 42.93,111.581C42.898,111.654 42.867,111.729 42.843,111.805C42.84,111.816 42.836,111.824 42.833,111.832C42.818,111.881 42.811,111.932 42.803,111.983C42.8,112.003 42.795,112.02 42.792,112.04C42.779,112.158 42.781,112.279 42.797,112.403C42.818,112.599 42.87,112.803 42.934,113.008C42.997,113.215 43.074,113.428 43.147,113.643C43.187,113.763 43.209,113.922 43.212,114.108C43.214,114.203 43.21,114.302 43.2,114.408C43.192,114.514 43.178,114.628 43.158,114.745C43.153,114.769 43.148,114.794 43.141,114.821C43.081,115.091 42.944,115.484 42.937,115.541C43.476,114.975 44.104,114.319 44.788,113.945C44.913,113.876 45.021,113.817 45.14,113.844C45.543,113.935 45.884,114.091 46.311,114.119C46.582,114.136 46.852,114.13 47.123,114.105C47.252,114.093 47.383,114.076 47.512,114.056C49.276,113.779 50.752,112.86 51.459,111.137C51.467,111.119 51.469,111.1 51.467,111.082C51.463,111.064 51.456,111.045 51.443,111.028C51.433,111.012 51.417,110.995 51.398,110.986C51.382,110.972 51.36,110.966 51.334,110.96C51.265,110.951 51.199,110.94 51.13,110.929C51.063,110.921 50.996,110.909 50.929,110.9C49.501,110.697 47.945,110.216 46.887,109.171C45.446,107.75 44.814,103.609 47.188,102.735C47.912,102.469 48.839,102.477 49.483,102.932C49.601,103.015 49.716,103.111 49.827,103.217C49.939,103.323 50.043,103.441 50.141,103.568C50.238,103.695 50.326,103.832 50.398,103.979C50.472,104.125 50.532,104.281 50.576,104.443C50.618,104.605 50.643,104.776 50.646,104.951C50.65,105.126 50.632,105.308 50.588,105.495C50.581,105.529 50.57,105.562 50.562,105.598C50.518,105.749 50.458,105.907 50.377,106.065C50.375,106.069 50.372,106.075 50.369,106.078C50.366,106.082 50.365,106.087 50.362,106.09C50.361,106.094 50.359,106.098 50.357,106.102C50.355,106.106 50.354,106.109 50.353,106.113C50.343,106.129 50.34,106.149 50.342,106.167C50.345,106.186 50.353,106.205 50.365,106.223C50.375,106.24 50.393,106.255 50.41,106.266C50.429,106.278 50.452,106.286 50.475,106.29L50.477,106.291L50.493,106.291C50.633,106.299 50.772,106.303 50.909,106.305C51.048,106.307 51.184,106.305 51.319,106.302C53.077,106.245 54.881,105.734 56.098,104.364C56.732,103.65 57.139,102.781 57.31,101.846C57.483,100.9 57.414,99.891 57.097,98.905Z" style="fill:rgb(0,133,62);fill-rule:nonzero;"/>
        <path d="M34.455,97.388L34.729,97.931L34.131,97.819L33.699,98.248L33.621,97.643L33.078,97.367L33.629,97.105L33.726,96.504L34.145,96.946L34.747,96.853L34.455,97.388ZM34.729,102.5L34.083,102.381L33.618,102.844L33.533,102.191L32.947,101.892L33.542,101.61L33.646,100.961L34.098,101.438L34.747,101.338L34.432,101.915L34.729,102.5ZM32.198,99.852L32.125,99.299L31.63,99.045L32.134,98.806L32.221,98.257L32.604,98.66L33.154,98.575L32.889,99.065L33.14,99.562L32.591,99.46L32.198,99.852ZM30.679,97.596L30.593,96.933L29.998,96.628L30.602,96.341L30.708,95.68L31.167,96.167L31.829,96.062L31.508,96.651L31.811,97.247L31.153,97.125L30.679,97.596ZM30.491,100.564L29.845,100.443L29.382,100.905L29.299,100.257L28.716,99.957L29.308,99.678L29.411,99.03L29.861,99.507L30.507,99.406L30.194,99.98L30.491,100.564ZM38.887,113.452C38.907,113.428 38.955,113.372 38.989,113.329C39.072,113.205 39.145,113.081 39.212,112.957C39.3,112.789 39.379,112.615 39.442,112.435C39.457,112.397 39.469,112.36 39.481,112.323C39.489,112.299 39.497,112.276 39.503,112.251C39.581,111.99 39.625,111.74 39.642,111.52C39.644,111.51 39.644,111.499 39.645,111.488C39.645,111.451 39.646,111.415 39.645,111.378C39.642,111.01 39.509,110.669 39.398,110.326C39.34,110.151 39.293,109.98 39.271,109.816C39.248,109.651 39.25,109.492 39.292,109.339C39.333,109.187 39.416,109.042 39.548,108.906C39.657,108.795 39.756,108.68 39.849,108.559C39.942,108.438 40.03,108.314 40.112,108.186C40.133,108.157 40.153,108.126 40.173,108.094C40.236,107.999 40.298,107.9 40.358,107.805C40.438,107.678 40.518,107.553 40.603,107.433C40.69,107.301 40.735,107.186 40.747,107.084C40.761,106.982 40.743,106.889 40.704,106.8C40.667,106.712 40.608,106.626 40.543,106.536C40.479,106.446 40.406,106.353 40.34,106.248C40.307,106.197 40.26,106.143 40.209,106.087C40.158,106.031 40.104,105.974 40.055,105.915C40.009,105.855 39.967,105.796 39.942,105.736C39.919,105.674 39.911,105.613 39.932,105.553C39.962,105.465 40.023,105.387 40.1,105.314C40.176,105.239 40.271,105.168 40.363,105.095C40.457,105.021 40.549,104.946 40.628,104.862C40.658,104.832 40.683,104.8 40.707,104.765C40.747,104.709 40.779,104.65 40.799,104.584C40.859,104.39 40.868,104.22 40.838,104.062C40.811,103.907 40.746,103.762 40.667,103.624C40.653,103.601 40.638,103.578 40.622,103.553C40.57,103.472 40.509,103.398 40.455,103.321C40.348,103.178 40.242,103.035 40.164,102.881C40.097,102.747 40.052,102.607 40.052,102.457L40.052,102.44C40.052,102.322 40.073,102.184 40.114,102.033C40.119,102.017 40.126,101.999 40.132,101.982L40.131,101.978C40.132,101.949 40.153,101.91 40.165,101.881C40.242,101.671 40.366,101.444 40.552,101.217C40.642,101.107 40.735,101.008 40.84,100.92C40.976,100.795 41.125,100.677 41.306,100.561C41.483,100.449 41.656,100.304 41.811,100.138C41.967,99.973 42.106,99.783 42.219,99.587C42.332,99.39 42.418,99.183 42.465,98.977C42.512,98.772 42.521,98.568 42.481,98.378C42.46,98.276 42.41,98.182 42.342,98.097C42.274,98.012 42.189,97.935 42.095,97.861C42.002,97.791 41.902,97.723 41.804,97.657C41.741,97.615 41.68,97.574 41.622,97.535C41.591,97.511 41.559,97.489 41.531,97.466C41.414,97.375 41.296,97.285 41.179,97.196C41.063,97.105 40.944,97.014 40.825,96.924C40.706,96.834 40.585,96.745 40.467,96.654C40.422,96.621 40.379,96.588 40.337,96.555C40.259,96.496 40.181,96.439 40.104,96.38C39.798,96.15 39.498,95.851 39.216,95.53C39.127,95.427 39.041,95.325 38.958,95.22C38.905,95.155 38.862,95.092 38.812,95.027C38.691,94.879 38.577,94.725 38.467,94.567C38.457,94.553 38.444,94.539 38.433,94.524C38.407,94.485 38.379,94.447 38.352,94.408C38.086,94.041 37.792,93.679 37.653,93.241C37.508,92.781 37.558,92.293 37.658,91.829C37.689,91.684 37.721,91.569 37.744,91.512C37.8,91.377 37.846,91.242 37.884,91.104C37.918,90.966 37.949,90.824 37.97,90.682C38.009,90.399 38.017,90.112 37.997,89.823C37.98,89.535 37.938,89.245 37.879,88.962C37.822,88.676 37.746,88.392 37.661,88.12C37.637,88.031 37.607,87.942 37.582,87.851C37.571,87.877 37.56,87.9 37.55,87.925C37.437,88.198 37.333,88.477 37.241,88.759C37.151,89.038 37.074,89.32 37.014,89.606C36.953,89.892 36.909,90.179 36.888,90.471C36.861,90.831 36.861,91.242 36.892,91.674C36.921,92.104 36.98,92.553 37.068,92.993C37.156,93.431 37.273,93.861 37.422,94.251C37.568,94.639 37.746,94.99 37.955,95.279C37.68,95.116 37.398,94.97 37.113,94.842C36.824,94.712 36.531,94.603 36.234,94.51C35.938,94.416 35.636,94.341 35.333,94.286C33.708,93.981 31.933,94.208 30.488,95.056C29.974,95.358 29.497,95.723 29.077,96.15C28.266,96.979 27.699,97.936 27.383,98.925C27.064,99.909 26.997,100.92 27.169,101.866C27.339,102.8 27.746,103.668 28.381,104.384C29.322,105.442 30.66,106.012 32.023,106.219C32.397,106.276 32.781,106.311 33.16,106.321C33.295,106.327 33.432,106.327 33.569,106.327C33.708,106.323 33.846,106.319 33.987,106.311L34.002,106.311C34.004,106.311 34.004,106.31 34.004,106.31C34.028,106.307 34.051,106.299 34.069,106.285C34.087,106.274 34.103,106.26 34.114,106.241C34.126,106.224 34.134,106.205 34.137,106.187C34.141,106.167 34.137,106.15 34.126,106.132C34.126,106.128 34.124,106.126 34.122,106.122C34.121,106.12 34.119,106.116 34.118,106.111C34.114,106.107 34.113,106.104 34.11,106.098C34.108,106.094 34.104,106.089 34.102,106.082C34.004,105.89 33.934,105.7 33.891,105.515C33.846,105.327 33.83,105.146 33.833,104.971C33.835,104.794 33.861,104.626 33.904,104.462C33.947,104.299 34.008,104.145 34.081,103.999C34.154,103.853 34.241,103.715 34.338,103.588C34.436,103.46 34.541,103.342 34.65,103.238C35.443,102.477 36.732,102.246 37.652,102.905C37.763,102.984 37.865,103.074 37.962,103.177C38.561,103.807 38.794,104.712 38.794,105.572C38.794,106.423 38.656,107.346 38.346,108.141C38.255,108.375 38.139,108.603 37.989,108.823C37.538,109.489 36.858,109.949 36.134,110.255C35.922,110.345 35.695,110.426 35.461,110.498C34.84,110.694 34.195,110.827 33.55,110.918C33.484,110.928 33.416,110.94 33.349,110.95C33.282,110.96 33.215,110.971 33.144,110.98C33.12,110.983 33.099,110.993 33.082,111.005C33.063,111.015 33.047,111.032 33.036,111.048C33.024,111.064 33.017,111.082 33.014,111.102C33.009,111.12 33.012,111.137 33.02,111.157C33.198,111.594 33.414,111.98 33.651,112.317C34.412,113.39 35.499,114.097 36.763,114.043C37.316,114.043 37.935,114.026 38.504,113.89C38.645,113.75 38.771,113.604 38.881,113.455C38.883,113.454 38.885,113.452 38.887,113.452Z" style="fill:rgb(0,75,142);fill-rule:nonzero;"/>
        <path d="M38.922,91.15C38.923,91.125 38.923,91.1 38.922,91.077L38.922,91.15Z" style="fill:rgb(255,242,0);fill-rule:nonzero;"/>
        <path d="M41.809,115.292C41.8,115.106 41.771,114.95 41.725,114.832C41.601,114.509 41.439,114.162 41.36,113.811C41.344,113.741 41.326,113.676 41.317,113.605C41.304,113.479 41.299,113.351 41.32,113.223C41.324,113.193 41.333,113.16 41.339,113.13C41.357,113.015 41.388,112.901 41.438,112.785C41.843,111.857 42.76,111.273 43.148,110.324C43.173,110.264 43.192,110.202 43.204,110.14C43.229,110.011 43.221,109.881 43.173,109.76C42.907,109.085 41.93,108.602 42.453,107.942C42.508,107.87 42.578,107.798 42.671,107.722C42.77,107.642 42.874,107.567 42.968,107.48C42.973,107.477 42.976,107.474 42.979,107.47C43.012,107.439 43.046,107.404 43.078,107.37C43.094,107.351 43.112,107.333 43.127,107.313C43.133,107.305 43.138,107.295 43.144,107.287C43.173,107.248 43.196,107.206 43.219,107.167C43.245,107.124 43.272,107.08 43.292,107.033C43.312,106.99 43.324,106.944 43.339,106.899C43.349,106.865 43.365,106.836 43.371,106.802C43.376,106.786 43.371,106.773 43.375,106.757C43.391,106.664 43.395,106.571 43.391,106.478C43.391,106.457 43.396,106.435 43.395,106.417C43.323,105.664 42.527,105.189 42.49,104.457C42.483,104.306 42.498,104.157 42.522,104.01C42.526,103.993 42.522,103.977 42.526,103.961C42.532,103.937 42.54,103.912 42.548,103.888C42.562,103.822 42.58,103.752 42.602,103.687C42.608,103.669 42.61,103.652 42.616,103.635C42.623,103.615 42.631,103.596 42.639,103.577C42.645,103.559 42.653,103.542 42.66,103.526C42.665,103.508 42.672,103.492 42.677,103.476C42.687,103.454 42.728,103.368 42.738,103.344C42.74,103.341 42.742,103.338 42.744,103.335C42.809,103.195 42.896,103.059 42.987,102.93C42.997,102.914 43.006,102.897 43.017,102.881C43.024,102.869 43.034,102.861 43.043,102.85C43.152,102.702 43.274,102.561 43.405,102.429C43.416,102.42 43.423,102.406 43.433,102.398C43.981,101.864 44.605,101.519 45.018,100.847C45.04,100.811 45.062,100.773 45.083,100.734C45.1,100.706 45.102,100.702 45.102,100.702C45.103,100.702 45.104,100.7 45.104,100.699C45.105,100.699 45.105,100.698 45.106,100.695C45.495,99.993 45.685,99.116 45,98.542C43.801,97.521 42.468,96.668 41.498,95.404C40.597,94.231 39.419,92.846 39.7,91.281C39.789,90.792 39.997,90.352 40.124,89.875C40.264,89.343 40.306,88.787 40.284,88.237C40.243,87.258 40.108,86.278 39.842,85.336C39.571,84.382 39.153,83.479 38.59,82.682L38.59,82.681L38.59,82.682C38.418,82.924 38.258,83.163 38.11,83.396C37.986,83.592 37.697,84.058 37.669,84.106C37.604,84.225 37.538,84.345 37.47,84.468C37.467,84.474 37.463,84.482 37.459,84.49C37.395,84.605 37.333,84.72 37.271,84.835C37.203,84.957 37.138,85.08 37.071,85.206C37.004,85.33 36.938,85.455 36.872,85.579C36.947,85.792 37.017,86.004 37.085,86.216C37.153,86.427 37.219,86.637 37.285,86.847C37.349,87.057 37.412,87.264 37.476,87.47C37.511,87.587 37.546,87.702 37.582,87.819C37.687,87.568 37.797,87.319 37.913,87.075C37.916,87.08 37.916,87.089 37.918,87.094C37.924,87.083 37.929,87.075 37.935,87.065C37.944,87.044 37.953,87.024 37.962,87.004C37.978,86.974 37.995,86.944 38.012,86.912C38.056,86.828 38.097,86.75 38.142,86.673C38.151,86.658 38.157,86.642 38.167,86.626C38.18,86.605 38.192,86.586 38.205,86.564C38.25,86.487 38.29,86.424 38.328,86.365C38.336,86.351 38.345,86.337 38.353,86.323C38.358,86.314 38.365,86.305 38.372,86.295C38.407,86.241 38.43,86.205 38.448,86.181C38.453,86.173 38.459,86.166 38.462,86.158C38.463,86.157 38.467,86.153 38.467,86.153C38.591,86.444 38.698,86.745 38.785,87.052C39.004,87.828 39.116,88.634 39.148,89.437C39.166,89.89 39.131,90.347 39.014,90.785C38.987,90.884 38.957,90.982 38.922,91.077C38.923,91.1 38.923,91.125 38.922,91.15L38.922,91.078C38.827,91.363 38.715,91.64 38.661,91.94C38.616,92.179 38.613,92.414 38.645,92.643C38.779,93.644 39.54,94.547 40.147,95.333C40.951,96.372 42.055,97.081 43.052,97.917C43.661,98.428 43.433,99.218 43.063,99.812C42.721,100.366 42.201,100.646 41.744,101.085C41.652,101.176 41.564,101.27 41.483,101.371C41.4,101.474 41.324,101.584 41.257,101.698C41.189,101.813 41.13,101.933 41.083,102.055C41.037,102.179 41.001,102.305 40.98,102.434C40.978,102.448 40.977,102.461 40.976,102.473C40.972,102.499 40.967,102.524 40.965,102.551C40.964,102.574 40.964,102.596 40.961,102.618C40.959,102.672 40.958,102.723 40.961,102.779C40.982,103.183 41.289,103.494 41.504,103.842C41.608,104.011 41.69,104.188 41.707,104.389C41.738,104.74 41.61,105.032 41.354,105.263C41.346,105.271 41.34,105.277 41.334,105.282L41.333,105.282C41.278,105.327 41.221,105.371 41.165,105.416C41.134,105.439 41.103,105.464 41.071,105.49C41.048,105.51 41.025,105.53 41.003,105.55L41.002,105.551C40.98,105.57 40.96,105.591 40.94,105.612C40.913,105.639 40.892,105.674 40.869,105.706C40.852,105.728 40.833,105.746 40.821,105.769C40.79,105.826 40.771,105.89 40.774,105.957C40.786,106.217 41.052,106.494 41.268,106.76C41.375,106.891 41.471,107.019 41.519,107.139C41.667,107.51 41.344,107.858 41.162,108.155C40.998,108.419 40.836,108.683 40.651,108.933C40.597,109.005 40.537,109.074 40.478,109.142C40.473,109.147 40.469,109.152 40.464,109.155C40.462,109.158 40.46,109.16 40.459,109.162C40.424,109.199 40.392,109.237 40.358,109.277C40.34,109.3 40.319,109.324 40.299,109.349C40.286,109.368 40.271,109.387 40.258,109.406C40.254,109.41 40.25,109.416 40.246,109.422C40.202,109.484 40.164,109.551 40.133,109.623C39.884,110.229 40.256,110.837 40.385,111.42C40.392,111.443 40.396,111.469 40.401,111.493C40.412,111.557 40.408,111.622 40.411,111.688C40.414,111.74 40.421,111.789 40.419,111.84C40.414,111.921 40.4,112 40.385,112.079C40.377,112.123 40.377,112.164 40.366,112.206C40.366,112.212 40.362,112.219 40.36,112.223C40.343,112.294 40.313,112.363 40.288,112.43C40.269,112.483 40.254,112.536 40.232,112.586C40.178,112.703 40.116,112.815 40.045,112.919C39.683,113.461 39.12,113.745 38.504,113.89C38.349,114.047 38.173,114.196 37.979,114.334C38.159,114.524 38.353,114.704 38.55,114.877C38.746,115.045 38.947,115.205 39.141,115.357C39.336,115.506 39.524,115.646 39.697,115.776C39.871,115.905 40.027,116.023 40.161,116.127C40.26,116.209 40.368,116.321 40.479,116.444C40.589,116.57 40.704,116.707 40.815,116.841C40.915,116.959 41.011,117.072 41.105,117.172C41.118,117.186 41.132,117.2 41.146,117.215C41.189,117.261 41.231,117.3 41.272,117.338C41.4,117.101 41.506,116.865 41.586,116.634C41.637,116.486 41.677,116.342 41.71,116.202C41.734,116.096 41.756,115.991 41.771,115.89C41.782,115.829 41.781,115.777 41.787,115.719C41.797,115.618 41.811,115.513 41.812,115.42C41.812,115.376 41.811,115.332 41.809,115.292Z" style="fill:rgb(255,242,0);fill-rule:nonzero;"/>
        <path d="M38.898,90.639C38.898,90.645 38.899,90.65 38.899,90.656C38.899,90.651 38.897,90.647 38.897,90.641L38.898,90.639ZM38.922,91.046L38.922,91.035C38.922,91.021 38.921,91.004 38.921,90.989C38.918,90.966 38.916,90.941 38.918,90.918C38.921,90.96 38.922,91.004 38.922,91.046ZM40.045,112.919C40.116,112.815 40.178,112.703 40.232,112.586C40.254,112.536 40.269,112.483 40.288,112.43C40.313,112.363 40.343,112.294 40.36,112.223C40.374,112.176 40.375,112.129 40.385,112.079C40.4,112 40.414,111.921 40.419,111.84C40.421,111.789 40.414,111.739 40.411,111.688C40.408,111.622 40.412,111.557 40.401,111.493C40.396,111.469 40.392,111.443 40.385,111.42C40.256,110.837 39.884,110.229 40.133,109.623C40.158,109.564 40.187,109.509 40.224,109.455C40.229,109.445 40.237,109.433 40.246,109.422C40.25,109.416 40.254,109.41 40.258,109.406C40.264,109.395 40.271,109.386 40.278,109.377C40.285,109.368 40.292,109.359 40.299,109.349C40.319,109.324 40.34,109.3 40.358,109.277C40.392,109.237 40.424,109.199 40.459,109.162C40.46,109.16 40.462,109.158 40.464,109.155C40.529,109.081 40.594,109.009 40.651,108.933C40.836,108.683 40.998,108.419 41.162,108.155C41.344,107.858 41.667,107.51 41.519,107.139C41.471,107.019 41.375,106.891 41.268,106.76C41.052,106.494 40.786,106.217 40.774,105.957C40.771,105.89 40.79,105.826 40.821,105.769C40.833,105.746 40.852,105.728 40.869,105.706C40.892,105.674 40.913,105.639 40.939,105.612C40.958,105.592 40.977,105.574 40.994,105.556C40.998,105.553 41.001,105.553 41.003,105.55C41.025,105.53 41.048,105.51 41.071,105.49C41.103,105.464 41.134,105.439 41.165,105.416C41.221,105.371 41.278,105.327 41.333,105.282C41.339,105.277 41.346,105.271 41.354,105.263C41.61,105.032 41.738,104.74 41.707,104.389C41.69,104.188 41.608,104.011 41.504,103.842C41.289,103.494 40.982,103.183 40.961,102.779C40.958,102.723 40.959,102.672 40.961,102.618L40.961,102.606C40.961,102.587 40.964,102.568 40.965,102.549C40.967,102.524 40.972,102.499 40.976,102.473C40.977,102.461 40.978,102.448 40.98,102.434C41.001,102.305 41.037,102.179 41.083,102.055C41.13,101.933 41.189,101.813 41.256,101.698C41.323,101.584 41.4,101.474 41.483,101.371C41.564,101.27 41.652,101.176 41.744,101.085C42.201,100.646 42.721,100.366 43.063,99.812C43.433,99.218 43.661,98.428 43.052,97.917C42.055,97.081 40.951,96.372 40.147,95.333C39.54,94.547 38.779,93.644 38.645,92.643C38.613,92.414 38.616,92.179 38.661,91.94C38.715,91.64 38.827,91.363 38.922,91.078L38.922,91.07L38.922,91.077C38.957,90.982 38.987,90.884 39.014,90.785C39.131,90.347 39.166,89.89 39.148,89.437C39.116,88.634 39.004,87.828 38.785,87.052C38.698,86.745 38.591,86.444 38.467,86.153C38.467,86.153 38.463,86.157 38.462,86.158C38.459,86.166 38.453,86.173 38.448,86.181C38.421,86.219 38.396,86.257 38.372,86.295C38.365,86.305 38.358,86.314 38.353,86.323C38.345,86.337 38.336,86.351 38.328,86.365C38.286,86.43 38.245,86.497 38.205,86.564C38.192,86.586 38.18,86.605 38.167,86.626C38.157,86.642 38.151,86.658 38.142,86.673C38.097,86.751 38.054,86.832 38.012,86.912C37.995,86.944 37.978,86.974 37.962,87.004C37.953,87.024 37.944,87.044 37.935,87.065C37.877,87.182 37.822,87.301 37.769,87.421C37.704,87.565 37.642,87.708 37.582,87.851C37.607,87.942 37.637,88.031 37.661,88.12C37.746,88.392 37.822,88.676 37.879,88.962C37.938,89.245 37.98,89.535 37.997,89.823C38.017,90.112 38.009,90.399 37.97,90.682C37.949,90.824 37.918,90.966 37.884,91.104C37.846,91.242 37.8,91.377 37.744,91.512C37.721,91.569 37.689,91.684 37.658,91.829C37.558,92.293 37.508,92.781 37.653,93.241C37.792,93.679 38.086,94.041 38.352,94.408C38.379,94.447 38.407,94.485 38.433,94.524C38.444,94.539 38.457,94.553 38.467,94.567C38.573,94.718 38.694,94.874 38.812,95.027C38.862,95.092 38.905,95.155 38.958,95.22C39.041,95.325 39.127,95.427 39.216,95.53C39.498,95.851 39.798,96.15 40.104,96.38C40.181,96.439 40.259,96.496 40.337,96.555C40.379,96.588 40.422,96.621 40.467,96.654C40.585,96.745 40.706,96.834 40.825,96.924C40.944,97.014 41.063,97.105 41.179,97.196C41.296,97.285 41.414,97.375 41.531,97.466C41.559,97.489 41.591,97.511 41.622,97.535C41.68,97.574 41.741,97.615 41.804,97.657C41.902,97.723 42.002,97.791 42.095,97.861C42.189,97.935 42.274,98.012 42.342,98.097C42.41,98.182 42.46,98.276 42.481,98.378C42.521,98.568 42.512,98.772 42.465,98.977C42.418,99.183 42.332,99.39 42.219,99.587C42.106,99.783 41.967,99.973 41.811,100.138C41.656,100.304 41.483,100.449 41.306,100.561C41.125,100.677 40.976,100.795 40.84,100.92C40.732,101.018 40.633,101.116 40.552,101.217C40.366,101.444 40.242,101.671 40.165,101.881C40.152,101.915 40.142,101.949 40.132,101.982C40.126,101.999 40.119,102.017 40.114,102.033C40.073,102.184 40.052,102.322 40.052,102.44L40.052,102.457C40.052,102.607 40.097,102.747 40.164,102.881C40.242,103.035 40.348,103.178 40.455,103.321C40.513,103.398 40.572,103.475 40.622,103.553C40.638,103.578 40.653,103.601 40.667,103.624C40.746,103.762 40.811,103.907 40.838,104.062C40.868,104.22 40.859,104.39 40.799,104.584C40.779,104.65 40.747,104.709 40.707,104.765C40.683,104.8 40.658,104.832 40.628,104.862C40.549,104.946 40.457,105.021 40.363,105.095C40.271,105.168 40.176,105.239 40.1,105.314C40.023,105.387 39.962,105.465 39.932,105.553C39.911,105.613 39.919,105.674 39.942,105.736C39.967,105.796 40.009,105.855 40.055,105.915C40.104,105.974 40.158,106.031 40.209,106.087C40.26,106.143 40.307,106.197 40.34,106.248C40.406,106.353 40.479,106.446 40.543,106.536C40.608,106.626 40.667,106.712 40.704,106.8C40.743,106.889 40.761,106.982 40.747,107.084C40.735,107.186 40.69,107.301 40.603,107.433C40.518,107.553 40.438,107.678 40.358,107.805C40.298,107.9 40.236,107.999 40.173,108.094C40.153,108.126 40.133,108.157 40.112,108.186C40.03,108.314 39.942,108.438 39.849,108.559C39.756,108.68 39.657,108.795 39.548,108.906C39.416,109.042 39.333,109.187 39.292,109.339C39.25,109.492 39.248,109.651 39.271,109.816C39.293,109.98 39.34,110.151 39.398,110.326C39.509,110.669 39.642,111.01 39.645,111.378C39.646,111.415 39.645,111.451 39.645,111.488C39.644,111.499 39.644,111.51 39.642,111.52C39.629,111.768 39.577,112.014 39.503,112.251C39.497,112.276 39.489,112.299 39.481,112.323C39.469,112.36 39.457,112.397 39.442,112.435C39.379,112.615 39.3,112.789 39.212,112.957C39.204,112.972 39.197,112.986 39.191,113.002C39.139,113.101 39.08,113.193 39.021,113.289C39.017,113.296 38.999,113.315 38.989,113.329C38.955,113.372 38.907,113.428 38.887,113.452C38.886,113.452 38.883,113.458 38.882,113.458C38.843,113.502 38.809,113.551 38.771,113.597C38.687,113.7 38.598,113.797 38.504,113.89C39.12,113.745 39.683,113.461 40.045,112.919Z" style="fill:rgb(0,172,205);fill-rule:nonzero;"/>
        <path d="M29.861,99.507L29.411,99.03L29.308,99.678L28.716,99.957L29.299,100.257L29.382,100.905L29.845,100.443L30.491,100.564L30.194,99.98L30.507,99.406L29.861,99.507Z" style="fill:white;fill-rule:nonzero;"/>
        <path d="M34.098,101.438L33.646,100.961L33.542,101.61L32.947,101.892L33.533,102.191L33.618,102.844L34.083,102.381L34.729,102.5L34.432,101.915L34.747,101.338L34.098,101.438Z" style="fill:white;fill-rule:nonzero;"/>
        <path d="M33.726,96.504L33.629,97.105L33.078,97.367L33.621,97.643L33.699,98.248L34.131,97.819L34.729,97.931L34.455,97.388L34.747,96.853L34.145,96.946L33.726,96.504Z" style="fill:white;fill-rule:nonzero;"/>
        <path d="M32.889,99.065L33.154,98.575L32.604,98.66L32.221,98.257L32.134,98.806L31.63,99.045L32.125,99.299L32.198,99.852L32.591,99.46L33.14,99.562L32.889,99.065Z" style="fill:white;fill-rule:nonzero;"/>
        <path d="M31.508,96.651L31.829,96.062L31.167,96.167L30.708,95.68L30.602,96.341L29.998,96.628L30.593,96.933L30.679,97.596L31.153,97.125L31.811,97.247L31.508,96.651Z" style="fill:white;fill-rule:nonzero;"/>
        <path d="M68.295,110.233C69.146,110.233 69.705,109.712 69.705,108.833C69.705,107.963 69.146,107.459 68.304,107.459L66.895,107.459L66.895,110.233L68.295,110.233ZM66.253,107.459L65.658,107.459L65.658,106.892L68.377,106.892C69.522,106.892 70.364,107.642 70.364,108.833C70.364,110.032 69.522,110.801 68.377,110.801L66.895,110.801L66.895,113.328L66.253,113.328L66.253,107.459Z" style="fill:rgb(194,205,35);fill-rule:nonzero;"/>
        <path d="M74.511,110.554C74.475,109.602 73.889,109.135 73.211,109.135C72.451,109.135 71.783,109.629 71.627,110.554L74.511,110.554ZM73.22,108.613C74.493,108.613 75.152,109.593 75.152,110.737C75.152,110.847 75.134,111.048 75.134,111.048L71.6,111.048C71.618,112.211 72.433,112.879 73.385,112.879C74.228,112.879 74.768,112.312 74.768,112.312L75.069,112.779C75.069,112.779 74.401,113.438 73.357,113.438C71.993,113.438 70.95,112.449 70.95,111.03C70.95,109.519 71.984,108.613 73.22,108.613Z" style="fill:rgb(194,205,35);fill-rule:nonzero;"/>
        <path d="M76.479,109.465C76.479,109.336 76.405,109.263 76.277,109.263L75.893,109.263L75.893,108.723L76.534,108.723C76.918,108.723 77.092,108.879 77.092,109.245L77.092,109.556C77.092,109.748 77.074,109.904 77.074,109.904L77.092,109.904C77.312,109.208 77.824,108.677 78.548,108.677C78.676,108.677 78.795,108.704 78.795,108.704L78.795,109.318C78.795,109.318 78.685,109.3 78.566,109.3C77.916,109.3 77.431,109.812 77.229,110.49C77.138,110.783 77.101,111.094 77.101,111.387L77.101,113.328L76.479,113.328L76.479,109.465Z" style="fill:rgb(194,205,35);fill-rule:nonzero;"/>
        <path d="M80.083,109.465C80.083,109.336 80.01,109.263 79.882,109.263L79.497,109.263L79.497,108.723L80.138,108.723C80.522,108.723 80.696,108.887 80.696,109.236L80.696,109.446C80.696,109.629 80.678,109.776 80.678,109.776L80.696,109.776C80.861,109.354 81.447,108.613 82.527,108.613C83.672,108.613 84.075,109.263 84.075,110.398L84.075,112.586C84.075,112.723 84.148,112.788 84.276,112.788L84.661,112.788L84.661,113.328L84.011,113.328C83.617,113.328 83.452,113.163 83.452,112.769L83.452,110.563C83.452,109.84 83.342,109.199 82.454,109.199C81.667,109.199 80.989,109.739 80.779,110.499C80.724,110.691 80.706,110.902 80.706,111.121L80.706,113.328L80.083,113.328L80.083,109.465Z" style="fill:rgb(194,205,35);fill-rule:nonzero;"/>
        <path d="M87.045,112.907C87.924,112.907 88.455,111.991 88.455,111.195L88.455,110.984L88.189,110.984C87.466,110.984 86.02,111.003 86.02,112.037C86.02,112.468 86.358,112.907 87.045,112.907ZM88.198,110.49L88.455,110.49L88.455,110.435C88.455,109.473 88.106,109.135 87.265,109.135C87.036,109.135 86.367,109.199 86.367,109.538L86.367,109.831L85.772,109.831L85.772,109.391C85.772,108.75 86.871,108.613 87.273,108.613C88.729,108.613 89.077,109.391 89.077,110.38L89.077,112.586C89.077,112.723 89.15,112.788 89.278,112.788L89.663,112.788L89.663,113.328L89.031,113.328C88.638,113.328 88.482,113.154 88.482,112.779C88.482,112.577 88.491,112.44 88.491,112.44L88.473,112.44C88.482,112.44 88.098,113.438 86.944,113.438C86.175,113.438 85.378,112.989 85.378,112.074C85.378,110.545 87.402,110.49 88.198,110.49Z" style="fill:rgb(194,205,35);fill-rule:nonzero;"/>
        <path d="M90.719,109.465C90.719,109.336 90.646,109.263 90.518,109.263L90.133,109.263L90.133,108.723L90.774,108.723C91.158,108.723 91.332,108.887 91.332,109.236L91.332,109.446C91.332,109.629 91.314,109.776 91.314,109.776L91.332,109.776C91.561,109.153 92.284,108.613 92.999,108.613C93.85,108.613 94.29,109.007 94.427,109.766L94.445,109.766C94.692,109.144 95.36,108.613 96.139,108.613C97.256,108.613 97.668,109.263 97.668,110.398L97.668,112.586C97.668,112.723 97.741,112.788 97.869,112.788L98.254,112.788L98.254,113.328L97.604,113.328C97.21,113.328 97.045,113.163 97.045,112.769L97.045,110.554C97.045,109.803 96.89,109.18 96.047,109.18C95.352,109.18 94.774,109.803 94.592,110.481C94.527,110.682 94.509,110.902 94.509,111.149L94.509,113.328L93.887,113.328L93.887,110.554C93.887,109.858 93.786,109.18 92.916,109.18C92.166,109.18 91.607,109.831 91.415,110.535C91.36,110.728 91.341,110.938 91.341,111.149L91.341,113.328L90.719,113.328L90.719,109.465Z" style="fill:rgb(194,205,35);fill-rule:nonzero;"/>
        <path d="M101.351,112.888C102.165,112.888 102.834,112.202 102.834,111.03C102.834,109.904 102.23,109.18 101.378,109.18C100.609,109.18 99.886,109.73 99.886,111.039C99.886,111.964 100.362,112.888 101.351,112.888ZM99.281,107.634C99.281,107.505 99.208,107.432 99.08,107.432L98.695,107.432L98.695,106.892L99.345,106.892C99.739,106.892 99.904,107.056 99.904,107.45L99.904,109.116C99.904,109.327 99.886,109.492 99.886,109.492L99.904,109.492C99.904,109.492 100.289,108.613 101.47,108.613C102.706,108.613 103.475,109.602 103.475,111.03C103.475,112.486 102.605,113.438 101.396,113.438C100.298,113.438 99.886,112.55 99.886,112.55L99.867,112.55C99.867,112.55 99.886,112.705 99.886,112.925L99.886,113.328L99.281,113.328L99.281,107.634Z" style="fill:rgb(194,205,35);fill-rule:nonzero;"/>
        <path d="M104.733,109.465C104.733,109.336 104.66,109.263 104.532,109.263L104.147,109.263L104.147,108.723L104.797,108.723C105.191,108.723 105.356,108.887 105.356,109.263L105.356,111.488C105.356,112.211 105.475,112.852 106.363,112.852C107.407,112.852 108.057,111.927 108.057,110.929L108.057,108.723L108.679,108.723L108.679,112.586C108.679,112.723 108.752,112.788 108.88,112.788L109.265,112.788L109.265,113.328L108.633,113.328C108.249,113.328 108.075,113.163 108.075,112.815L108.075,112.605C108.075,112.422 108.093,112.275 108.093,112.275L108.075,112.275C107.892,112.723 107.288,113.438 106.281,113.438C105.191,113.438 104.733,112.852 104.733,111.653L104.733,109.465Z" style="fill:rgb(194,205,35);fill-rule:nonzero;"/>
        <path d="M112.364,108.613C112.885,108.613 114.002,108.833 114.002,109.593L114.002,110.005L113.416,110.005L113.416,109.739C113.416,109.354 112.748,109.172 112.364,109.172C111.375,109.172 110.579,109.913 110.579,111.03C110.579,112.165 111.412,112.87 112.382,112.87C113.325,112.87 113.865,112.22 113.865,112.22L114.158,112.687C114.158,112.687 113.536,113.438 112.354,113.438C110.981,113.438 109.937,112.458 109.937,111.03C109.937,109.62 110.99,108.613 112.364,108.613Z" style="fill:rgb(194,205,35);fill-rule:nonzero;"/>
        <path d="M117.311,112.879C118.29,112.879 119.096,112.074 119.096,111.003C119.096,109.959 118.29,109.18 117.311,109.18C116.322,109.18 115.516,109.959 115.516,111.003C115.516,112.074 116.322,112.879 117.311,112.879ZM117.302,108.613C118.647,108.613 119.737,109.638 119.737,111.003C119.737,112.394 118.647,113.438 117.311,113.438C115.965,113.438 114.875,112.394 114.875,111.003C114.875,109.638 115.965,108.613 117.302,108.613Z" style="fill:rgb(194,205,35);fill-rule:nonzero;"/>
    </g>
</svg>
